<svg width="852" height="1205" viewBox="0 0 852 1205" fill="none" xmlns="http://www.w3.org/2000/svg">
<g filter="url(#filter0_d_145_48)">
<path d="M191.196 533.549C185.723 535.461 180.357 535.149 175.098 532.614C169.838 530.078 166.252 526.073 164.34 520.6L153.91 490.746L124.056 501.177C118.582 503.089 113.216 502.777 107.957 500.242C102.697 497.706 99.1117 493.701 97.1994 488.228L90.2456 468.325L154.431 445.9L180.215 465.365C181.507 466.402 183.045 467.074 184.828 467.382C186.61 467.69 188.33 467.554 189.989 466.974C192.145 466.221 193.904 464.862 195.264 462.898C196.625 460.934 197.29 458.841 197.258 456.618L196.611 411.622L209.589 421.603C211.048 422.582 212.668 423.226 214.451 423.534C216.233 423.841 217.954 423.706 219.612 423.126L289.271 398.788L296.225 418.69C298.137 424.164 297.826 429.53 295.29 434.789C292.754 440.049 288.749 443.635 283.276 445.547L253.422 455.977L263.853 485.831C265.765 491.304 265.453 496.671 262.918 501.93C260.382 507.189 256.377 510.775 250.904 512.688L191.196 533.549ZM175.953 435.589L162.725 425.694C161.432 424.657 159.895 423.985 158.112 423.677C156.33 423.369 154.609 423.505 152.951 424.085L83.2919 448.423L76.3381 428.52C74.4259 423.047 74.7376 417.681 77.2734 412.421C79.8092 407.162 83.8137 403.576 89.2869 401.664L119.141 391.233L108.71 361.38C106.798 355.906 107.11 350.54 109.645 345.281C112.181 340.021 116.186 336.436 121.659 334.523L181.367 313.662C186.84 311.75 192.206 312.061 197.465 314.597C202.725 317.133 206.311 321.138 208.223 326.611L218.654 356.465L248.507 346.034C253.981 344.122 259.347 344.433 264.606 346.969C269.866 349.505 273.451 353.51 275.364 358.983L282.317 378.885L217.883 401.398L192.1 381.933C190.807 380.896 189.269 380.224 187.487 379.916C185.704 379.608 183.984 379.744 182.325 380.323C180.169 381.077 178.452 382.421 177.174 384.356C175.896 386.292 175.273 388.37 175.305 390.592L175.953 435.589Z" fill="url(#paint0_linear_145_48)"/>
</g>
<g filter="url(#filter1_df_145_48)">
<path d="M431.07 549.027C427.996 547.801 425.8 545.656 424.484 542.594C423.168 539.531 423.122 536.462 424.348 533.388L431.036 516.617L414.265 509.93C411.191 508.704 408.995 506.559 407.679 503.497C406.362 500.434 406.317 497.365 407.543 494.291L412.002 483.11L448.059 497.489L451.877 515.533C452.046 516.464 452.457 517.33 453.11 518.13C453.762 518.931 454.555 519.516 455.486 519.888C456.697 520.371 457.964 520.444 459.286 520.107C460.608 519.771 461.679 519.118 462.497 518.148L479.072 498.517L480.926 507.679C481.188 508.648 481.645 509.532 482.298 510.332C482.951 511.132 483.743 511.718 484.674 512.09L523.806 527.694L519.348 538.874C518.122 541.949 515.977 544.145 512.915 545.461C509.852 546.777 506.783 546.823 503.709 545.597L486.938 538.909L480.251 555.68C479.025 558.754 476.88 560.95 473.818 562.266C470.755 563.583 467.686 563.628 464.612 562.402L431.07 549.027ZM461.194 501.107L459.2 491.889C459.032 490.958 458.621 490.092 457.968 489.292C457.315 488.492 456.523 487.906 455.592 487.534L416.46 471.93L420.918 460.749C422.144 457.675 424.289 455.479 427.351 454.163C430.414 452.846 433.483 452.801 436.557 454.027L453.328 460.715L460.015 443.944C461.241 440.87 463.386 438.674 466.448 437.358C469.511 436.041 472.58 435.996 475.654 437.222L509.196 450.597C512.27 451.823 514.466 453.968 515.782 457.03C517.098 460.093 517.144 463.161 515.918 466.236L509.23 483.007L526.001 489.694C529.075 490.92 531.271 493.065 532.587 496.127C533.904 499.19 533.949 502.259 532.723 505.333L528.264 516.514L492.068 502.08L488.249 484.035C488.08 483.104 487.669 482.238 487.017 481.438C486.364 480.638 485.572 480.052 484.64 479.68C483.429 479.197 482.185 479.133 480.91 479.489C479.634 479.844 478.587 480.506 477.769 481.476L461.194 501.107Z" fill="url(#paint1_linear_145_48)"/>
</g>
<g filter="url(#filter2_df_145_48)">
<path d="M299.165 691.044C297.668 691.79 296.122 691.896 294.525 691.361C292.928 690.827 291.757 689.811 291.011 688.315L286.943 680.152L278.781 684.22C277.284 684.966 275.738 685.071 274.141 684.537C272.544 684.002 271.373 682.986 270.627 681.49L267.915 676.048L285.465 667.302L293.548 671.936C293.956 672.185 294.42 672.322 294.941 672.345C295.462 672.369 295.949 672.267 296.403 672.041C296.992 671.747 297.446 671.295 297.764 670.683C298.082 670.072 298.196 669.449 298.107 668.815L296.288 655.965L300.364 658.349C300.816 658.576 301.303 658.702 301.825 658.725C302.346 658.748 302.833 658.647 303.287 658.421L322.332 648.929L325.044 654.371C325.79 655.868 325.896 657.414 325.361 659.011C324.827 660.608 323.811 661.779 322.315 662.525L314.152 666.593L318.22 674.755C318.966 676.252 319.071 677.798 318.537 679.395C318.002 680.992 316.986 682.163 315.49 682.909L299.165 691.044ZM291.248 663.571L287.104 661.221C286.697 660.971 286.233 660.834 285.711 660.811C285.19 660.788 284.703 660.889 284.249 661.115L265.204 670.607L262.492 665.165C261.746 663.668 261.64 662.122 262.175 660.525C262.709 658.928 263.725 657.757 265.221 657.011L273.384 652.943L269.316 644.781C268.57 643.284 268.465 641.738 268.999 640.141C269.534 638.544 270.55 637.373 272.046 636.627L288.371 628.492C289.868 627.746 291.414 627.64 293.011 628.175C294.608 628.709 295.779 629.725 296.525 631.221L300.593 639.384L308.755 635.316C310.252 634.57 311.798 634.465 313.395 634.999C314.992 635.534 316.163 636.549 316.909 638.046L319.621 643.488L302.003 652.267L293.92 647.634C293.512 647.385 293.048 647.248 292.527 647.225C292.006 647.201 291.519 647.303 291.065 647.529C290.476 647.822 290.033 648.269 289.738 648.869C289.442 649.469 289.34 650.087 289.429 650.721L291.248 663.571Z" fill="url(#paint2_linear_145_48)"/>
</g>
<g filter="url(#filter3_df_145_48)">
<path d="M242.181 990.965C240.685 991.326 239.275 991.102 237.952 990.293C236.629 989.484 235.786 988.332 235.425 986.835L233.456 978.67L225.291 980.64C223.794 981.001 222.385 980.777 221.061 979.969C219.738 979.16 218.896 978.007 218.535 976.51L217.222 971.067L234.776 966.833L241.076 972.656C241.391 972.964 241.779 973.183 242.242 973.311C242.705 973.439 243.163 973.449 243.617 973.339C244.207 973.197 244.707 972.884 245.119 972.401C245.53 971.918 245.761 971.382 245.811 970.794L246.826 958.886L249.993 961.866C250.352 962.163 250.764 962.375 251.226 962.504C251.689 962.632 252.148 962.642 252.601 962.532L271.652 957.936L272.965 963.379C273.326 964.876 273.102 966.286 272.293 967.609C271.484 968.932 270.332 969.774 268.835 970.135L260.67 972.105L262.64 980.269C263.001 981.766 262.777 983.176 261.969 984.499C261.16 985.822 260.007 986.664 258.51 987.025L242.181 990.965ZM240.735 964.675L237.5 961.712C237.186 961.403 236.797 961.185 236.334 961.057C235.871 960.929 235.413 960.919 234.959 961.029L215.909 965.624L214.596 960.181C214.235 958.685 214.459 957.275 215.267 955.952C216.076 954.629 217.229 953.787 218.726 953.425L226.89 951.456L224.92 943.291C224.559 941.795 224.783 940.385 225.592 939.062C226.401 937.738 227.553 936.896 229.05 936.535L245.379 932.596C246.876 932.235 248.286 932.459 249.609 933.267C250.932 934.076 251.774 935.229 252.135 936.726L254.105 944.89L262.269 942.92C263.766 942.559 265.176 942.783 266.499 943.592C267.822 944.401 268.664 945.554 269.025 947.05L270.338 952.493L252.717 956.744L246.416 950.921C246.102 950.613 245.713 950.394 245.25 950.266C244.787 950.138 244.329 950.128 243.876 950.238C243.286 950.38 242.797 950.69 242.408 951.168C242.019 951.646 241.8 952.179 241.75 952.767L240.735 964.675Z" fill="url(#paint3_linear_145_48)"/>
</g>
<g filter="url(#filter4_df_145_48)">
<path d="M775.908 881.393C773.558 880.848 771.74 879.544 770.455 877.482C769.171 875.42 768.801 873.214 769.346 870.865L772.322 858.047L759.504 855.071C757.154 854.526 755.337 853.222 754.052 851.16C752.767 849.099 752.397 846.893 752.943 844.543L754.927 835.998L782.484 842.395L787.218 854.976C787.442 855.629 787.833 856.207 788.392 856.712C788.95 857.217 789.585 857.552 790.297 857.717C791.223 857.932 792.143 857.846 793.059 857.458C793.974 857.07 794.674 856.482 795.157 855.693L804.942 839.729L807.284 846.126C807.579 846.795 808.006 847.382 808.564 847.887C809.122 848.391 809.757 848.726 810.469 848.892L840.377 855.835L838.393 864.38C837.848 866.73 836.544 868.547 834.482 869.832C832.42 871.117 830.215 871.487 827.865 870.941L815.047 867.966L812.072 880.783C811.526 883.133 810.222 884.95 808.16 886.235C806.099 887.52 803.893 887.89 801.543 887.344L775.908 881.393ZM792.346 843.559L789.896 837.137C789.673 836.484 789.282 835.906 788.723 835.401C788.165 834.896 787.53 834.561 786.818 834.396L756.91 827.453L758.894 818.908C759.44 816.558 760.743 814.74 762.805 813.455C764.867 812.17 767.073 811.801 769.423 812.346L782.24 815.322L785.216 802.504C785.761 800.154 787.065 798.337 789.127 797.052C791.189 795.767 793.395 795.397 795.745 795.943L821.38 801.894C823.73 802.44 825.547 803.743 826.832 805.805C828.117 807.867 828.487 810.073 827.941 812.423L824.966 825.24L837.783 828.216C840.133 828.761 841.95 830.065 843.235 832.127C844.52 834.189 844.89 836.395 844.344 838.745L842.361 847.29L814.696 840.867L809.962 828.286C809.738 827.634 809.347 827.055 808.789 826.551C808.231 826.046 807.596 825.711 806.884 825.545C805.958 825.331 805.055 825.421 804.175 825.817C803.295 826.213 802.614 826.806 802.13 827.594L792.346 843.559Z" fill="url(#paint4_linear_145_48)"/>
</g>
<g filter="url(#filter5_d_145_48)">
<path d="M731.836 716.844C727.591 716.491 724.083 714.678 721.312 711.403C718.54 708.129 717.331 704.37 717.684 700.125L719.609 676.973L696.457 675.047C692.212 674.694 688.704 672.881 685.933 669.607C683.161 666.333 681.952 662.573 682.305 658.329L683.589 642.893L733.367 647.033L744.85 667.804C745.408 668.886 746.239 669.797 747.343 670.537C748.447 671.276 749.642 671.699 750.929 671.806C752.601 671.945 754.187 671.559 755.687 670.648C757.188 669.736 758.26 668.53 758.902 667.03L771.92 636.64L777.646 647.218C778.332 648.311 779.227 649.228 780.332 649.967C781.436 650.707 782.631 651.13 783.917 651.237L837.94 655.729L836.657 671.164C836.304 675.409 834.49 678.917 831.216 681.688C827.942 684.46 824.183 685.669 819.938 685.316L796.785 683.391L794.86 706.543C794.507 710.788 792.693 714.296 789.419 717.067C786.145 719.839 782.386 721.048 778.141 720.695L731.836 716.844ZM750.892 646.548L744.974 635.953C744.416 634.871 743.585 633.96 742.481 633.22C741.377 632.481 740.182 632.058 738.895 631.951L684.872 627.458L686.156 612.023C686.509 607.778 688.322 604.27 691.596 601.499C694.871 598.728 698.63 597.518 702.875 597.871L726.027 599.797L727.953 576.644C728.306 572.399 730.119 568.891 733.393 566.12C736.667 563.349 740.427 562.14 744.671 562.493L790.977 566.343C795.222 566.696 798.73 568.51 801.501 571.784C804.272 575.058 805.482 578.817 805.129 583.062L803.203 606.215L826.356 608.14C830.601 608.493 834.109 610.307 836.88 613.581C839.651 616.855 840.86 620.614 840.507 624.859L839.224 640.294L789.253 636.138L777.769 615.368C777.212 614.285 776.381 613.374 775.277 612.635C774.173 611.895 772.977 611.472 771.691 611.365C770.019 611.226 768.465 611.615 767.029 612.532C765.592 613.448 764.553 614.657 763.91 616.158L750.892 646.548Z" fill="url(#paint5_linear_145_48)"/>
</g>
<g filter="url(#filter6_d_145_48)">
<path d="M58.2574 902.886C53.68 901.097 50.3987 897.935 48.4134 893.401C46.4281 888.867 46.3302 884.311 48.1197 879.734L57.8807 854.766L32.9132 845.005C28.3359 843.216 25.0545 840.054 23.0693 835.52C21.084 830.986 20.9861 826.431 22.7756 821.853L29.2829 805.208L82.9629 826.194L88.8143 852.948C89.074 854.329 89.6925 855.61 90.6697 856.791C91.647 857.973 92.8291 858.835 94.2162 859.377C96.0194 860.082 97.9008 860.178 99.8604 859.665C101.82 859.152 103.403 858.171 104.608 856.724L129.021 827.41L131.865 840.995C132.264 842.43 132.951 843.738 133.929 844.92C134.906 846.101 136.088 846.963 137.475 847.506L195.733 870.281L189.225 886.926C187.436 891.504 184.274 894.785 179.74 896.77C175.206 898.755 170.65 898.853 166.073 897.064L141.106 887.303L131.345 912.27C129.555 916.848 126.393 920.129 121.859 922.114C117.325 924.1 112.77 924.198 108.192 922.408L58.2574 902.886ZM102.502 831.434L99.4495 817.768C99.1898 816.387 98.5713 815.106 97.594 813.925C96.6168 812.743 95.4346 811.881 94.0476 811.339L35.7902 788.563L42.2975 771.918C44.087 767.341 47.2487 764.06 51.7827 762.074C56.3167 760.089 60.8724 759.991 65.4498 761.781L90.4172 771.542L100.178 746.574C101.968 741.997 105.129 738.715 109.663 736.73C114.197 734.745 118.753 734.647 123.33 736.436L173.265 755.958C177.843 757.748 181.124 760.91 183.109 765.444C185.095 769.978 185.192 774.533 183.403 779.111L173.642 804.078L198.609 813.839C203.187 815.629 206.468 818.79 208.453 823.324C210.439 827.858 210.537 832.414 208.747 836.991L202.24 853.636L148.352 832.569L142.5 805.815C142.241 804.435 141.622 803.153 140.645 801.972C139.668 800.79 138.486 799.928 137.098 799.386C135.295 798.681 133.449 798.599 131.558 799.139C129.668 799.679 128.12 800.673 126.915 802.121L102.502 831.434Z" fill="url(#paint6_linear_145_48)"/>
</g>
<g filter="url(#filter7_d_145_48)">
<path d="M606.017 318.498C601.459 316.869 598.136 313.851 596.05 309.445C593.964 305.038 593.736 300.556 595.365 295.998L604.251 271.133L579.387 262.247C574.828 260.618 571.506 257.6 569.42 253.193C567.334 248.787 567.105 244.305 568.735 239.746L574.659 223.17L628.117 242.275L634.654 268.446C634.95 269.798 635.596 271.041 636.592 272.176C637.589 273.311 638.777 274.125 640.159 274.619C641.955 275.261 643.81 275.301 645.724 274.739C647.639 274.177 649.168 273.166 650.313 271.705L673.499 242.137L676.693 255.429C677.127 256.831 677.842 258.099 678.838 259.234C679.835 260.369 681.024 261.183 682.405 261.677L740.422 282.411L734.498 298.988C732.869 303.546 729.851 306.869 725.445 308.955C721.038 311.041 716.556 311.269 711.997 309.64L687.133 300.754L678.247 325.618C676.618 330.177 673.6 333.499 669.193 335.585C664.787 337.671 660.305 337.9 655.746 336.27L606.017 318.498ZM647.506 246.868L644.105 233.502C643.809 232.15 643.163 230.906 642.167 229.771C641.17 228.636 639.981 227.822 638.6 227.328L580.583 206.594L586.507 190.017C588.136 185.459 591.154 182.136 595.56 180.05C599.967 177.964 604.449 177.736 609.008 179.365L633.872 188.251L642.758 163.387C644.387 158.828 647.405 155.506 651.812 153.42C656.218 151.334 660.7 151.105 665.259 152.735L714.988 170.507C719.546 172.136 722.869 175.154 724.955 179.56C727.041 183.967 727.269 188.449 725.64 193.008L716.754 217.872L741.618 226.758C746.177 228.387 749.499 231.405 751.585 235.812C753.671 240.218 753.9 244.7 752.27 249.259L746.346 265.835L692.68 246.656L686.144 220.485C685.848 219.133 685.202 217.89 684.206 216.755C683.209 215.62 682.02 214.806 680.639 214.312C678.843 213.67 677.023 213.643 675.177 214.229C673.332 214.816 671.837 215.839 670.692 217.3L647.506 246.868Z" fill="url(#paint7_linear_145_48)"/>
</g>
<g filter="url(#filter8_d_145_48)">
<path d="M620.448 1066.76C616.261 1065.7 613.055 1063.3 610.83 1059.56C608.605 1055.82 608.023 1051.86 609.084 1047.68L614.876 1024.84L592.039 1019.05C587.852 1017.98 584.646 1015.59 582.42 1011.85C580.195 1008.11 579.613 1004.15 580.675 999.961L584.536 984.736L633.636 997.188L641.654 1019.88C642.031 1021.06 642.71 1022.11 643.691 1023.03C644.672 1023.95 645.797 1024.58 647.065 1024.9C648.715 1025.32 650.366 1025.2 652.019 1024.53C653.672 1023.87 654.945 1022.85 655.839 1021.45L673.934 993.229L677.895 1004.77C678.399 1005.97 679.141 1007.04 680.122 1007.96C681.103 1008.89 682.228 1009.51 683.497 1009.83L736.783 1023.35L732.922 1038.57C731.861 1042.76 729.461 1045.96 725.723 1048.19C721.986 1050.41 718.023 1051 713.837 1049.93L691 1044.14L685.208 1066.98C684.146 1071.17 681.747 1074.37 678.009 1076.6C674.272 1078.82 670.309 1079.41 666.123 1078.34L620.448 1066.76ZM651.246 999.628L647.095 988.043C646.718 986.867 646.039 985.817 645.058 984.893C644.077 983.969 642.952 983.346 641.683 983.025L588.397 969.511L592.258 954.287C593.319 950.1 595.719 946.894 599.457 944.668C603.194 942.443 607.156 941.861 611.343 942.923L634.18 948.714L639.972 925.877C641.033 921.69 643.433 918.484 647.171 916.259C650.908 914.033 654.871 913.451 659.057 914.513L704.732 926.096C708.918 927.158 712.125 929.557 714.35 933.295C716.575 937.033 717.157 940.995 716.095 945.182L710.304 968.019L733.141 973.81C737.328 974.872 740.534 977.272 742.76 981.009C744.985 984.747 745.567 988.709 744.505 992.896L740.644 1008.12L691.354 995.621L683.336 972.927C682.959 971.752 682.28 970.702 681.299 969.778C680.318 968.854 679.193 968.231 677.924 967.909C676.275 967.491 674.655 967.62 673.066 968.298C671.476 968.975 670.235 970.01 669.341 971.404L651.246 999.628Z" fill="url(#paint8_linear_145_48)"/>
</g>
<g filter="url(#filter9_d_145_48)">
<path d="M498.032 837.412C481.568 841.539 466.092 839.261 451.603 830.579C437.114 821.898 427.806 809.325 423.68 792.862L422.361 787.603C408.717 788.755 396.279 785.349 385.049 777.387C373.82 769.43 366.486 758.593 363.047 744.873L351.585 699.141C350.935 696.55 351.269 694.156 352.585 691.96C353.896 689.771 355.847 688.352 358.439 687.703L376.731 683.118C376.082 680.526 376.412 678.133 377.722 675.938C379.039 673.748 380.994 672.328 383.585 671.679C386.177 671.029 388.57 671.36 390.765 672.669C392.955 673.987 394.375 675.941 395.024 678.533L399.609 696.826C400.258 699.417 399.928 701.81 398.618 704.005C397.301 706.195 395.347 707.615 392.755 708.264C390.164 708.914 387.771 708.584 385.576 707.274C383.386 705.956 381.966 704.002 381.316 701.41L372.17 703.703L381.34 740.288C383.861 750.349 389.602 758.064 398.563 763.433C407.523 768.802 417.034 770.225 427.095 767.704C437.156 765.182 444.871 759.441 450.24 750.481C455.608 741.52 457.032 732.01 454.51 721.949L445.341 685.363L436.194 687.656C436.844 690.247 436.514 692.64 435.204 694.835C433.886 697.025 431.932 698.445 429.34 699.095C426.749 699.744 424.359 699.413 422.17 698.102C419.974 696.786 418.551 694.832 417.902 692.241L413.317 673.948C412.667 671.357 413 668.963 414.316 666.766C415.628 664.578 417.579 663.159 420.171 662.509C422.762 661.86 425.155 662.19 427.35 663.5C429.54 664.817 430.96 666.772 431.609 669.363L449.902 664.778C452.494 664.129 454.887 664.459 457.081 665.769C459.271 667.086 460.691 669.041 461.341 671.632L472.803 717.364C476.242 731.083 474.886 744.099 468.738 756.411C462.59 768.729 453.229 777.598 440.654 783.018L441.972 788.277C444.838 799.71 451.274 808.427 461.28 814.428C471.292 820.421 482.014 821.985 493.447 819.12C504.88 816.254 513.596 809.818 519.597 799.811C525.591 789.8 527.155 779.078 524.289 767.645L520.449 752.325C514.617 751.681 509.403 749.465 504.805 745.68C500.212 741.886 497.171 737.017 495.681 731.072C493.77 723.45 494.814 716.302 498.812 709.63C502.81 702.957 508.62 698.666 516.242 696.755C523.864 694.845 531.011 695.889 537.684 699.887C544.357 703.885 548.648 709.695 550.559 717.317C552.049 723.262 551.663 728.99 549.403 734.502C547.134 740.008 543.581 744.421 538.742 747.74L542.582 763.06C546.708 779.524 544.431 795 535.749 809.489C527.067 823.978 514.495 833.286 498.032 837.412Z" fill="url(#paint9_linear_145_48)"/>
</g>
<g filter="url(#filter10_d_145_48)">
<path d="M227.625 235.372C208.48 240.17 190.484 237.522 173.636 227.427C156.787 217.331 145.964 202.712 141.166 183.567L139.633 177.452C123.766 178.791 109.303 174.831 96.2442 165.572C83.1867 156.32 74.6586 143.718 70.6601 127.764L57.3314 74.5858C56.5762 71.5723 56.9636 68.7887 58.4939 66.2348C60.0188 63.6898 62.2879 62.0397 65.3014 61.2844L86.5727 55.953C85.8174 52.9395 86.2014 50.1567 87.7245 47.6047C89.2565 45.0579 91.5292 43.4069 94.5427 42.6516C97.5561 41.8963 100.339 42.2802 102.891 43.8033C105.438 45.3353 107.089 47.6081 107.844 50.6215L113.175 71.8928C113.931 74.9063 113.547 77.689 112.024 80.2411C110.492 82.7879 108.219 84.4389 105.206 85.1942C102.192 85.9495 99.4094 85.5656 96.8573 84.0424C94.3105 82.5104 92.6595 80.2377 91.9042 77.2243L81.2685 79.89L91.9314 122.433C94.8637 134.132 101.54 143.103 111.959 149.346C122.378 155.589 133.438 157.245 145.137 154.312C156.836 151.38 165.807 144.704 172.05 134.285C178.294 123.865 179.949 112.806 177.017 101.107L166.354 58.5642L155.718 61.2299C156.473 64.2434 156.09 67.0261 154.566 69.5782C153.034 72.125 150.762 73.776 147.748 74.5313C144.735 75.2866 141.956 74.9018 139.411 73.3769C136.857 71.8467 135.202 69.5748 134.447 66.5614L129.115 45.2901C128.36 42.2766 128.748 39.493 130.278 36.9391C131.803 34.3941 134.072 32.744 137.085 31.9887C140.099 31.2334 142.882 31.6173 145.434 33.1404C147.98 34.6725 149.631 36.9452 150.387 39.9586L171.658 34.6272C174.671 33.8719 177.454 34.2558 180.006 35.7789C182.553 37.311 184.204 39.5837 184.959 42.5971L198.288 95.7754C202.287 111.729 200.711 126.864 193.561 141.181C186.412 155.505 175.527 165.818 160.904 172.12L162.437 178.236C165.769 191.53 173.253 201.667 184.889 208.645C196.531 215.614 208.999 217.433 222.293 214.101C235.588 210.768 245.724 203.284 252.702 191.648C259.671 180.007 261.49 167.539 258.158 154.244L253.693 136.43C246.911 135.68 240.847 133.104 235.501 128.702C230.16 124.291 226.624 118.629 224.891 111.715C222.669 102.852 223.883 94.5412 228.532 86.782C233.181 79.0229 239.938 74.0326 248.801 71.8112C257.664 69.5897 265.975 70.8036 273.734 75.4527C281.493 80.1018 286.483 86.8579 288.705 95.721C290.438 102.634 289.989 109.295 287.361 115.704C284.723 122.107 280.591 127.239 274.964 131.098L279.429 148.913C284.228 168.057 281.579 186.053 271.484 202.902C261.389 219.75 246.769 230.574 227.625 235.372Z" fill="url(#paint10_linear_145_48)"/>
</g>
<g filter="url(#filter11_d_145_48)">
<path d="M381.578 1158.42C366.339 1148.72 356.769 1135.09 352.87 1117.54C348.972 1100 351.872 1083.6 361.572 1068.36L364.67 1063.49C353.792 1053.79 347.319 1041.69 345.249 1027.18C343.177 1012.68 346.182 999.084 354.265 986.384L381.208 944.052C382.735 941.653 384.828 940.158 387.489 939.567C390.14 938.978 392.664 939.447 395.063 940.974L411.996 951.751C413.523 949.352 415.614 947.855 418.268 947.261C420.925 946.675 423.453 947.146 425.852 948.673C428.251 950.2 429.747 952.29 430.342 954.945C430.927 957.601 430.456 960.129 428.93 962.528L418.152 979.461C416.626 981.86 414.535 983.357 411.88 983.951C409.224 984.537 406.696 984.066 404.297 982.539C401.898 981.012 400.402 978.922 399.807 976.267C399.222 973.611 399.692 971.083 401.219 968.684L392.753 963.295L371.198 997.162C365.271 1006.47 363.512 1016.56 365.923 1027.41C368.334 1038.26 374.197 1046.66 383.51 1052.58C392.823 1058.51 402.906 1060.27 413.76 1057.86C424.613 1055.45 433.003 1049.58 438.931 1040.27L460.485 1006.4L452.019 1001.02C450.492 1003.41 448.401 1004.91 445.747 1005.51C443.09 1006.09 440.562 1005.62 438.163 1004.09C435.765 1002.57 434.271 1000.48 433.682 997.827C433.091 995.167 433.559 992.637 435.086 990.239L445.863 973.305C447.39 970.906 449.483 969.412 452.143 968.821C454.794 968.232 457.319 968.701 459.718 970.227C462.117 971.754 463.614 973.845 464.208 976.499C464.793 979.156 464.323 981.684 462.796 984.083L479.729 994.86C482.128 996.387 483.625 998.477 484.219 1001.13C484.805 1003.79 484.334 1006.32 482.807 1008.72L455.864 1051.05C447.781 1063.75 436.733 1072.23 422.719 1076.49C408.701 1080.76 394.996 1080.02 381.603 1074.27L378.505 1079.14C371.769 1089.72 369.745 1101.07 372.434 1113.2C375.132 1125.32 381.772 1134.75 392.356 1141.49C402.939 1148.22 414.293 1150.25 426.417 1147.56C438.539 1144.86 447.968 1138.22 454.704 1127.64L463.73 1113.45C459.959 1108.48 457.853 1102.83 457.413 1096.5C456.981 1090.18 458.517 1084.26 462.02 1078.76C466.51 1071.7 472.797 1067.28 480.879 1065.48C488.961 1063.69 496.53 1065.03 503.585 1069.52C510.641 1074.02 515.066 1080.3 516.862 1088.38C518.657 1096.47 517.31 1104.03 512.819 1111.09C509.317 1116.59 504.609 1120.49 498.696 1122.78C492.78 1125.06 486.77 1125.54 480.663 1124.23L471.637 1138.41C461.938 1153.65 448.313 1163.22 430.763 1167.12C413.213 1171.02 396.818 1168.12 381.578 1158.42Z" fill="url(#paint11_linear_145_48)"/>
</g>
<g filter="url(#filter12_df_145_48)">
<path d="M434.408 299.388C426.676 297.316 420.818 292.831 416.835 285.932C412.852 279.033 411.896 271.718 413.968 263.986L414.63 261.516C408.742 258.864 404.395 254.61 401.59 248.754C398.785 242.901 398.245 236.753 399.972 230.31L405.727 208.832C406.053 207.615 406.739 206.704 407.785 206.101C408.827 205.499 409.956 205.361 411.173 205.687L419.765 207.989C420.091 206.772 420.775 205.861 421.818 205.257C422.863 204.656 423.994 204.519 425.211 204.845C426.428 205.171 427.339 205.855 427.943 206.898C428.544 207.943 428.682 209.074 428.356 210.291L426.054 218.882C425.728 220.099 425.043 221.01 424 221.615C422.955 222.216 421.824 222.353 420.607 222.027C419.39 221.701 418.479 221.016 417.875 219.973C417.274 218.928 417.136 217.797 417.463 216.58L413.167 215.429L408.563 232.612C407.297 237.337 407.896 241.832 410.359 246.099C412.822 250.365 416.416 253.132 421.141 254.398C425.866 255.664 430.362 255.065 434.629 252.602C438.895 250.139 441.661 246.545 442.927 241.819L447.531 224.637L443.236 223.486C442.91 224.703 442.225 225.614 441.182 226.219C440.137 226.82 439.006 226.957 437.789 226.631C436.572 226.305 435.663 225.621 435.061 224.579C434.457 223.533 434.319 222.401 434.645 221.184L436.947 212.593C437.273 211.376 437.959 210.466 439.004 209.862C440.047 209.26 441.176 209.123 442.393 209.449C443.61 209.775 444.521 210.459 445.126 211.502C445.727 212.547 445.864 213.678 445.538 214.895L454.129 217.197C455.346 217.523 456.257 218.208 456.861 219.251C457.462 220.296 457.6 221.427 457.273 222.644L451.518 244.121C449.792 250.565 446.251 255.619 440.895 259.285C435.538 262.954 429.647 264.465 423.221 263.818L422.559 266.288C421.121 271.657 421.776 276.725 424.526 281.492C427.279 286.257 431.34 289.358 436.71 290.797C442.079 292.236 447.147 291.58 451.914 288.831C456.679 286.077 459.781 282.016 461.219 276.646L463.147 269.451C460.891 267.849 459.249 265.741 458.221 263.127C457.197 260.511 457.059 257.807 457.808 255.015C458.767 251.435 460.835 248.728 464.012 246.894C467.189 245.059 470.568 244.622 474.147 245.581C477.727 246.54 480.434 248.608 482.268 251.785C484.102 254.962 484.54 258.341 483.581 261.92C482.833 264.713 481.361 266.985 479.166 268.739C476.969 270.489 474.493 271.494 471.738 271.753L469.81 278.948C467.739 286.68 463.253 292.538 456.354 296.521C449.455 300.504 442.14 301.46 434.408 299.388Z" fill="url(#paint12_linear_145_48)"/>
</g>
<g filter="url(#filter13_df_145_48)">
<path d="M734.835 481.581C729.236 482.718 724.067 481.718 719.326 478.579C714.586 475.439 711.647 471.071 710.509 465.472L710.145 463.683C705.54 463.864 701.409 462.53 697.753 459.682C694.098 456.836 691.796 453.081 690.848 448.415L687.688 432.863C687.508 431.982 687.657 431.182 688.133 430.463C688.607 429.747 689.285 429.3 690.166 429.121L696.387 427.856C696.207 426.975 696.355 426.175 696.829 425.457C697.305 424.741 697.984 424.293 698.865 424.114C699.746 423.935 700.546 424.082 701.264 424.556C701.98 425.032 702.428 425.711 702.607 426.592L703.872 432.813C704.051 433.694 703.903 434.494 703.43 435.212C702.953 435.928 702.275 436.376 701.393 436.555C700.512 436.734 699.712 436.587 698.994 436.113C698.278 435.637 697.83 434.958 697.651 434.077L694.54 434.709L697.069 447.151C697.764 450.572 699.578 453.254 702.509 455.195C705.441 457.136 708.617 457.759 712.039 457.064C715.46 456.368 718.142 454.555 720.083 451.623C722.024 448.692 722.647 445.515 721.952 442.094L719.423 429.652L716.313 430.284C716.492 431.166 716.345 431.965 715.871 432.684C715.395 433.4 714.716 433.848 713.835 434.027C712.954 434.206 712.155 434.058 711.439 433.584C710.72 433.108 710.271 432.43 710.092 431.549L708.828 425.328C708.649 424.447 708.797 423.647 709.273 422.928C709.747 422.212 710.425 421.764 711.306 421.585C712.188 421.406 712.987 421.554 713.705 422.027C714.422 422.504 714.87 423.182 715.049 424.064L721.27 422.799C722.151 422.62 722.951 422.768 723.669 423.241C724.385 423.718 724.833 424.396 725.012 425.278L728.173 440.83C729.121 445.495 728.468 449.851 726.213 453.898C723.959 457.947 720.677 460.787 716.366 462.419L716.73 464.208C717.52 468.096 719.552 471.124 722.826 473.294C726.101 475.461 729.683 476.15 733.571 475.36C737.459 474.57 740.488 472.538 742.657 469.264C744.825 465.988 745.513 462.407 744.723 458.519L743.664 453.309C741.713 453.004 739.993 452.18 738.504 450.837C737.017 449.491 736.069 447.808 735.658 445.786C735.131 443.194 735.59 440.807 737.036 438.623C738.482 436.44 740.501 435.085 743.092 434.559C745.684 434.032 748.072 434.491 750.255 435.937C752.438 437.383 753.793 439.401 754.32 441.993C754.731 444.015 754.514 445.936 753.671 447.754C752.824 449.572 751.562 451.002 749.885 452.044L750.944 457.254C752.082 462.853 751.081 468.023 747.942 472.763C744.803 477.504 740.434 480.443 734.835 481.581Z" fill="url(#paint13_linear_145_48)"/>
</g>
<defs>
<filter id="filter0_d_145_48" x="71.105" y="312.429" width="230.353" height="230.353" filterUnits="userSpaceOnUse" color-interpolation-filters="sRGB">
<feFlood flood-opacity="0" result="BackgroundImageFix"/>
<feColorMatrix in="SourceAlpha" type="matrix" values="0 0 0 0 0 0 0 0 0 0 0 0 0 0 0 0 0 0 127 0" result="hardAlpha"/>
<feOffset dy="4"/>
<feGaussianBlur stdDeviation="2"/>
<feComposite in2="hardAlpha" operator="out"/>
<feColorMatrix type="matrix" values="0 0 0 0 0 0 0 0 0 0 0 0 0 0 0 0 0 0 0.25 0"/>
<feBlend mode="normal" in2="BackgroundImageFix" result="effect1_dropShadow_145_48"/>
<feBlend mode="normal" in="SourceGraphic" in2="effect1_dropShadow_145_48" result="shape"/>
</filter>
<filter id="filter1_df_145_48" x="399.456" y="429.135" width="141.353" height="142.153" filterUnits="userSpaceOnUse" color-interpolation-filters="sRGB">
<feFlood flood-opacity="0" result="BackgroundImageFix"/>
<feColorMatrix in="SourceAlpha" type="matrix" values="0 0 0 0 0 0 0 0 0 0 0 0 0 0 0 0 0 0 127 0" result="hardAlpha"/>
<feOffset dy="4"/>
<feGaussianBlur stdDeviation="2"/>
<feComposite in2="hardAlpha" operator="out"/>
<feColorMatrix type="matrix" values="0 0 0 0 0 0 0 0 0 0 0 0 0 0 0 0 0 0 0.25 0"/>
<feBlend mode="normal" in2="BackgroundImageFix" result="effect1_dropShadow_145_48"/>
<feBlend mode="normal" in="SourceGraphic" in2="effect1_dropShadow_145_48" result="shape"/>
<feGaussianBlur stdDeviation="3.6" result="effect2_foregroundBlur_145_48"/>
</filter>
<filter id="filter2_df_145_48" x="254.64" y="620.64" width="78.256" height="79.0559" filterUnits="userSpaceOnUse" color-interpolation-filters="sRGB">
<feFlood flood-opacity="0" result="BackgroundImageFix"/>
<feColorMatrix in="SourceAlpha" type="matrix" values="0 0 0 0 0 0 0 0 0 0 0 0 0 0 0 0 0 0 127 0" result="hardAlpha"/>
<feOffset dy="4"/>
<feGaussianBlur stdDeviation="2"/>
<feComposite in2="hardAlpha" operator="out"/>
<feColorMatrix type="matrix" values="0 0 0 0 0 0 0 0 0 0 0 0 0 0 0 0 0 0 0.25 0"/>
<feBlend mode="normal" in2="BackgroundImageFix" result="effect1_dropShadow_145_48"/>
<feBlend mode="normal" in="SourceGraphic" in2="effect1_dropShadow_145_48" result="shape"/>
<feGaussianBlur stdDeviation="3.6" result="effect2_foregroundBlur_145_48"/>
</filter>
<filter id="filter3_df_145_48" x="207.229" y="925.229" width="73.1032" height="73.9032" filterUnits="userSpaceOnUse" color-interpolation-filters="sRGB">
<feFlood flood-opacity="0" result="BackgroundImageFix"/>
<feColorMatrix in="SourceAlpha" type="matrix" values="0 0 0 0 0 0 0 0 0 0 0 0 0 0 0 0 0 0 127 0" result="hardAlpha"/>
<feOffset dy="4"/>
<feGaussianBlur stdDeviation="2"/>
<feComposite in2="hardAlpha" operator="out"/>
<feColorMatrix type="matrix" values="0 0 0 0 0 0 0 0 0 0 0 0 0 0 0 0 0 0 0.25 0"/>
<feBlend mode="normal" in2="BackgroundImageFix" result="effect1_dropShadow_145_48"/>
<feBlend mode="normal" in="SourceGraphic" in2="effect1_dropShadow_145_48" result="shape"/>
<feGaussianBlur stdDeviation="3.6" result="effect2_foregroundBlur_145_48"/>
</filter>
<filter id="filter4_df_145_48" x="745.499" y="788.499" width="106.289" height="107.089" filterUnits="userSpaceOnUse" color-interpolation-filters="sRGB">
<feFlood flood-opacity="0" result="BackgroundImageFix"/>
<feColorMatrix in="SourceAlpha" type="matrix" values="0 0 0 0 0 0 0 0 0 0 0 0 0 0 0 0 0 0 127 0" result="hardAlpha"/>
<feOffset dy="4"/>
<feGaussianBlur stdDeviation="2"/>
<feComposite in2="hardAlpha" operator="out"/>
<feColorMatrix type="matrix" values="0 0 0 0 0 0 0 0 0 0 0 0 0 0 0 0 0 0 0.25 0"/>
<feBlend mode="normal" in2="BackgroundImageFix" result="effect1_dropShadow_145_48"/>
<feBlend mode="normal" in="SourceGraphic" in2="effect1_dropShadow_145_48" result="shape"/>
<feGaussianBlur stdDeviation="3.6" result="effect2_foregroundBlur_145_48"/>
</filter>
<filter id="filter5_d_145_48" x="678.245" y="562.433" width="166.322" height="167.322" filterUnits="userSpaceOnUse" color-interpolation-filters="sRGB">
<feFlood flood-opacity="0" result="BackgroundImageFix"/>
<feColorMatrix in="SourceAlpha" type="matrix" values="0 0 0 0 0 0 0 0 0 0 0 0 0 0 0 0 0 0 127 0" result="hardAlpha"/>
<feOffset dy="5"/>
<feGaussianBlur stdDeviation="2"/>
<feComposite in2="hardAlpha" operator="out"/>
<feColorMatrix type="matrix" values="0 0 0 0 0 0 0 0 0 0 0 0 0 0 0 0 0 0 0.25 0"/>
<feBlend mode="normal" in2="BackgroundImageFix" result="effect1_dropShadow_145_48"/>
<feBlend mode="normal" in="SourceGraphic" in2="effect1_dropShadow_145_48" result="shape"/>
</filter>
<filter id="filter6_d_145_48" x="17.5031" y="735.164" width="196.517" height="197.517" filterUnits="userSpaceOnUse" color-interpolation-filters="sRGB">
<feFlood flood-opacity="0" result="BackgroundImageFix"/>
<feColorMatrix in="SourceAlpha" type="matrix" values="0 0 0 0 0 0 0 0 0 0 0 0 0 0 0 0 0 0 127 0" result="hardAlpha"/>
<feOffset dy="5"/>
<feGaussianBlur stdDeviation="2"/>
<feComposite in2="hardAlpha" operator="out"/>
<feColorMatrix type="matrix" values="0 0 0 0 0 0 0 0 0 0 0 0 0 0 0 0 0 0 0.25 0"/>
<feBlend mode="normal" in2="BackgroundImageFix" result="effect1_dropShadow_145_48"/>
<feBlend mode="normal" in="SourceGraphic" in2="effect1_dropShadow_145_48" result="shape"/>
</filter>
<filter id="filter7_d_145_48" x="563.663" y="151.663" width="193.679" height="194.679" filterUnits="userSpaceOnUse" color-interpolation-filters="sRGB">
<feFlood flood-opacity="0" result="BackgroundImageFix"/>
<feColorMatrix in="SourceAlpha" type="matrix" values="0 0 0 0 0 0 0 0 0 0 0 0 0 0 0 0 0 0 127 0" result="hardAlpha"/>
<feOffset dy="5"/>
<feGaussianBlur stdDeviation="2"/>
<feComposite in2="hardAlpha" operator="out"/>
<feColorMatrix type="matrix" values="0 0 0 0 0 0 0 0 0 0 0 0 0 0 0 0 0 0 0.25 0"/>
<feBlend mode="normal" in2="BackgroundImageFix" result="effect1_dropShadow_145_48"/>
<feBlend mode="normal" in="SourceGraphic" in2="effect1_dropShadow_145_48" result="shape"/>
</filter>
<filter id="filter8_d_145_48" x="576.16" y="913.999" width="172.859" height="173.859" filterUnits="userSpaceOnUse" color-interpolation-filters="sRGB">
<feFlood flood-opacity="0" result="BackgroundImageFix"/>
<feColorMatrix in="SourceAlpha" type="matrix" values="0 0 0 0 0 0 0 0 0 0 0 0 0 0 0 0 0 0 127 0" result="hardAlpha"/>
<feOffset dy="5"/>
<feGaussianBlur stdDeviation="2"/>
<feComposite in2="hardAlpha" operator="out"/>
<feColorMatrix type="matrix" values="0 0 0 0 0 0 0 0 0 0 0 0 0 0 0 0 0 0 0.25 0"/>
<feBlend mode="normal" in2="BackgroundImageFix" result="effect1_dropShadow_145_48"/>
<feBlend mode="normal" in="SourceGraphic" in2="effect1_dropShadow_145_48" result="shape"/>
</filter>
<filter id="filter9_d_145_48" x="347.263" y="662.186" width="208.184" height="188.22" filterUnits="userSpaceOnUse" color-interpolation-filters="sRGB">
<feFlood flood-opacity="0" result="BackgroundImageFix"/>
<feColorMatrix in="SourceAlpha" type="matrix" values="0 0 0 0 0 0 0 0 0 0 0 0 0 0 0 0 0 0 127 0" result="hardAlpha"/>
<feOffset dy="7"/>
<feGaussianBlur stdDeviation="2"/>
<feComposite in2="hardAlpha" operator="out"/>
<feColorMatrix type="matrix" values="0 0 0 0 0 0 0 0 0 0 0 0 0 0 0 0 0 0 0.25 0"/>
<feBlend mode="normal" in2="BackgroundImageFix" result="effect1_dropShadow_145_48"/>
<feBlend mode="normal" in="SourceGraphic" in2="effect1_dropShadow_145_48" result="shape"/>
</filter>
<filter id="filter10_d_145_48" x="52.957" y="31.6131" width="240.78" height="217.078" filterUnits="userSpaceOnUse" color-interpolation-filters="sRGB">
<feFlood flood-opacity="0" result="BackgroundImageFix"/>
<feColorMatrix in="SourceAlpha" type="matrix" values="0 0 0 0 0 0 0 0 0 0 0 0 0 0 0 0 0 0 127 0" result="hardAlpha"/>
<feOffset dy="7"/>
<feGaussianBlur stdDeviation="2"/>
<feComposite in2="hardAlpha" operator="out"/>
<feColorMatrix type="matrix" values="0 0 0 0 0 0 0 0 0 0 0 0 0 0 0 0 0 0 0.25 0"/>
<feBlend mode="normal" in2="BackgroundImageFix" result="effect1_dropShadow_145_48"/>
<feBlend mode="normal" in="SourceGraphic" in2="effect1_dropShadow_145_48" result="shape"/>
</filter>
<filter id="filter11_d_145_48" x="340.615" y="939.321" width="181.016" height="240.476" filterUnits="userSpaceOnUse" color-interpolation-filters="sRGB">
<feFlood flood-opacity="0" result="BackgroundImageFix"/>
<feColorMatrix in="SourceAlpha" type="matrix" values="0 0 0 0 0 0 0 0 0 0 0 0 0 0 0 0 0 0 127 0" result="hardAlpha"/>
<feOffset dy="7"/>
<feGaussianBlur stdDeviation="2"/>
<feComposite in2="hardAlpha" operator="out"/>
<feColorMatrix type="matrix" values="0 0 0 0 0 0 0 0 0 0 0 0 0 0 0 0 0 0 0.25 0"/>
<feBlend mode="normal" in2="BackgroundImageFix" result="effect1_dropShadow_145_48"/>
<feBlend mode="normal" in="SourceGraphic" in2="effect1_dropShadow_145_48" result="shape"/>
</filter>
<filter id="filter12_df_145_48" x="394.985" y="200.673" width="93.0895" height="107.779" filterUnits="userSpaceOnUse" color-interpolation-filters="sRGB">
<feFlood flood-opacity="0" result="BackgroundImageFix"/>
<feColorMatrix in="SourceAlpha" type="matrix" values="0 0 0 0 0 0 0 0 0 0 0 0 0 0 0 0 0 0 127 0" result="hardAlpha"/>
<feOffset dy="4"/>
<feGaussianBlur stdDeviation="2"/>
<feComposite in2="hardAlpha" operator="out"/>
<feColorMatrix type="matrix" values="0 0 0 0 0 0 0 0 0 0 0 0 0 0 0 0 0 0 0.25 0"/>
<feBlend mode="normal" in2="BackgroundImageFix" result="effect1_dropShadow_145_48"/>
<feBlend mode="normal" in="SourceGraphic" in2="effect1_dropShadow_145_48" result="shape"/>
<feGaussianBlur stdDeviation="2" result="effect2_foregroundBlur_145_48"/>
</filter>
<filter id="filter13_df_145_48" x="683.614" y="417.512" width="74.9077" height="72.5229" filterUnits="userSpaceOnUse" color-interpolation-filters="sRGB">
<feFlood flood-opacity="0" result="BackgroundImageFix"/>
<feColorMatrix in="SourceAlpha" type="matrix" values="0 0 0 0 0 0 0 0 0 0 0 0 0 0 0 0 0 0 127 0" result="hardAlpha"/>
<feOffset dy="4"/>
<feGaussianBlur stdDeviation="2"/>
<feComposite in2="hardAlpha" operator="out"/>
<feColorMatrix type="matrix" values="0 0 0 0 0 0 0 0 0 0 0 0 0 0 0 0 0 0 0.25 0"/>
<feBlend mode="normal" in2="BackgroundImageFix" result="effect1_dropShadow_145_48"/>
<feBlend mode="normal" in="SourceGraphic" in2="effect1_dropShadow_145_48" result="shape"/>
<feGaussianBlur stdDeviation="2" result="effect2_foregroundBlur_145_48"/>
</filter>
<linearGradient id="paint0_linear_145_48" x1="179.308" y1="315.915" x2="179.528" y2="596.265" gradientUnits="userSpaceOnUse">
<stop stop-color="#1C4033"/>
<stop offset="1" stop-color="#5DB091"/>
</linearGradient>
<linearGradient id="paint1_linear_145_48" x1="507.464" y1="450.797" x2="402.551" y2="571.68" gradientUnits="userSpaceOnUse">
<stop stop-color="#1C4033"/>
<stop offset="1" stop-color="#5DB091"/>
</linearGradient>
<linearGradient id="paint2_linear_145_48" x1="287.864" y1="629.211" x2="298.103" y2="709.411" gradientUnits="userSpaceOnUse">
<stop stop-color="#1C4033"/>
<stop offset="1" stop-color="#5DB091"/>
</linearGradient>
<linearGradient id="paint3_linear_145_48" x1="244.776" y1="933.137" x2="237.445" y2="1007.23" gradientUnits="userSpaceOnUse">
<stop stop-color="#1C4033"/>
<stop offset="1" stop-color="#5DB091"/>
</linearGradient>
<linearGradient id="paint4_linear_145_48" x1="820.154" y1="802.228" x2="757.849" y2="900.848" gradientUnits="userSpaceOnUse">
<stop stop-color="#1C4033"/>
<stop offset="1" stop-color="#5DB091"/>
</linearGradient>
<linearGradient id="paint5_linear_145_48" x1="788.922" y1="567.24" x2="705.255" y2="755.443" gradientUnits="userSpaceOnUse">
<stop stop-color="#1C4033"/>
<stop offset="1" stop-color="#5DB091"/>
</linearGradient>
<linearGradient id="paint6_linear_145_48" x1="170.697" y1="756.272" x2="16.1411" y2="936.807" gradientUnits="userSpaceOnUse">
<stop stop-color="#1C4033"/>
<stop offset="1" stop-color="#5DB091"/>
</linearGradient>
<linearGradient id="paint7_linear_145_48" x1="712.468" y1="170.891" x2="565.535" y2="353.116" gradientUnits="userSpaceOnUse">
<stop stop-color="#1C4033"/>
<stop offset="1" stop-color="#5DB091"/>
</linearGradient>
<linearGradient id="paint8_linear_145_48" x1="702.526" y1="926.65" x2="587.416" y2="1100.93" gradientUnits="userSpaceOnUse">
<stop stop-color="#1C4033"/>
<stop offset="1" stop-color="#5DB091"/>
</linearGradient>
<linearGradient id="paint9_linear_145_48" x1="463.886" y1="652.888" x2="441.405" y2="902.655" gradientUnits="userSpaceOnUse">
<stop stop-color="#70998A"/>
<stop offset="1" stop-color="#327C61"/>
</linearGradient>
<linearGradient id="paint10_linear_145_48" x1="187.919" y1="20.8008" x2="161.777" y2="311.239" gradientUnits="userSpaceOnUse">
<stop stop-color="#70998A"/>
<stop offset="1" stop-color="#327C61"/>
</linearGradient>
<linearGradient id="paint11_linear_145_48" x1="499.152" y1="996.96" x2="289.717" y2="1162.43" gradientUnits="userSpaceOnUse">
<stop stop-color="#70998A"/>
<stop offset="1" stop-color="#327C61"/>
</linearGradient>
<linearGradient id="paint12_linear_145_48" x1="462.618" y1="215.5" x2="396.115" y2="313.305" gradientUnits="userSpaceOnUse">
<stop stop-color="#70998A"/>
<stop offset="1" stop-color="#327C61"/>
</linearGradient>
<linearGradient id="paint13_linear_145_48" x1="726.152" y1="419.013" x2="714.804" y2="502.661" gradientUnits="userSpaceOnUse">
<stop stop-color="#70998A"/>
<stop offset="1" stop-color="#327C61"/>
</linearGradient>
</defs>
</svg>
