<svg width="350" height="324" viewBox="0 0 350 324" fill="none" xmlns="http://www.w3.org/2000/svg">
<circle cx="177" cy="53" r="53" fill="#F1F1F1"/>
<path d="M186 20H158V92H174V68H186C199.24 68 210 57.24 210 44C210 30.76 199.24 20 186 20ZM186.8 52H174V36H186.8C191.2 36 194.8 39.6 194.8 44C194.8 48.4 191.2 52 186.8 52Z" fill="#5E8275"/>
<path fill-rule="evenodd" clip-rule="evenodd" d="M114.536 67H20C8.95431 67 0 75.9543 0 87V304C0 315.046 8.9543 324 20 324H330C341.046 324 350 315.046 350 304V87C350 75.9543 341.046 67 330 67H239.464C233.079 95.6127 207.537 117 177 117C146.463 117 120.921 95.6127 114.536 67Z" fill="#F1F1F1"/>
</svg>
