<svg width="821" height="1080" viewBox="0 0 821 1080" fill="none" xmlns="http://www.w3.org/2000/svg">
<g filter="url(#filter0_d_152_126)">
<path d="M160.196 471.549C154.723 473.461 149.357 473.149 144.098 470.614C138.838 468.078 135.252 464.073 133.34 458.6L122.91 428.746L93.0557 439.177C87.5825 441.089 82.2162 440.777 76.9569 438.242C71.6975 435.706 68.1117 431.701 66.1994 426.228L59.2456 406.325L123.431 383.9L149.215 403.365C150.507 404.402 152.045 405.074 153.828 405.382C155.61 405.69 157.33 405.554 158.989 404.974C161.145 404.221 162.904 402.862 164.264 400.898C165.625 398.934 166.29 396.841 166.258 394.618L165.611 349.622L178.589 359.603C180.048 360.582 181.668 361.226 183.451 361.534C185.233 361.841 186.954 361.706 188.612 361.126L258.271 336.788L265.225 356.69C267.137 362.164 266.826 367.53 264.29 372.789C261.754 378.049 257.749 381.635 252.276 383.547L222.422 393.977L232.853 423.831C234.765 429.304 234.453 434.671 231.918 439.93C229.382 445.189 225.377 448.775 219.904 450.688L160.196 471.549ZM144.953 373.589L131.725 363.694C130.432 362.657 128.895 361.985 127.112 361.677C125.33 361.369 123.609 361.505 121.951 362.085L52.2919 386.423L45.3381 366.52C43.4259 361.047 43.7376 355.681 46.2734 350.421C48.8092 345.162 52.8137 341.576 58.2869 339.664L88.1408 329.233L77.7102 299.38C75.7979 293.906 76.1096 288.54 78.6454 283.281C81.1812 278.021 85.1858 274.436 90.659 272.523L150.367 251.662C155.84 249.75 161.206 250.061 166.465 252.597C171.725 255.133 175.311 259.138 177.223 264.611L187.654 294.465L217.507 284.034C222.981 282.122 228.347 282.433 233.606 284.969C238.866 287.505 242.451 291.51 244.364 296.983L251.317 316.885L186.883 339.398L161.1 319.933C159.807 318.896 158.269 318.224 156.487 317.916C154.704 317.608 152.984 317.744 151.325 318.323C149.169 319.077 147.452 320.421 146.174 322.356C144.896 324.292 144.273 326.37 144.305 328.592L144.953 373.589Z" fill="url(#paint0_linear_152_126)"/>
</g>
<g filter="url(#filter1_df_152_126)">
<path d="M400.071 487.027C396.996 485.801 394.8 483.656 393.484 480.594C392.168 477.531 392.122 474.462 393.348 471.388L400.036 454.617L383.265 447.93C380.191 446.704 377.995 444.559 376.679 441.497C375.362 438.434 375.317 435.365 376.543 432.291L381.002 421.11L417.059 435.489L420.878 453.533C421.046 454.464 421.457 455.33 422.11 456.13C422.762 456.931 423.555 457.516 424.486 457.888C425.698 458.371 426.964 458.444 428.286 458.107C429.608 457.771 430.679 457.118 431.497 456.148L448.072 436.517L449.926 445.679C450.188 446.648 450.645 447.532 451.298 448.332C451.951 449.132 452.743 449.718 453.675 450.09L492.806 465.694L488.348 476.874C487.122 479.949 484.977 482.145 481.915 483.461C478.852 484.777 475.784 484.823 472.709 483.597L455.938 476.909L449.251 493.68C448.025 496.754 445.88 498.95 442.818 500.266C439.755 501.583 436.686 501.628 433.612 500.402L400.071 487.027ZM430.194 439.107L428.2 429.889C428.032 428.958 427.621 428.092 426.968 427.292C426.316 426.492 425.523 425.906 424.592 425.534L385.46 409.93L389.918 398.749C391.144 395.675 393.289 393.479 396.351 392.163C399.414 390.846 402.483 390.801 405.557 392.027L422.328 398.715L429.015 381.944C430.241 378.87 432.386 376.674 435.448 375.358C438.511 374.041 441.58 373.996 444.654 375.222L478.196 388.597C481.27 389.823 483.466 391.968 484.782 395.03C486.099 398.093 486.144 401.161 484.918 404.236L478.23 421.007L495.001 427.694C498.075 428.92 500.271 431.065 501.587 434.127C502.904 437.19 502.949 440.259 501.723 443.333L497.264 454.514L461.068 440.08L457.249 422.035C457.08 421.104 456.67 420.238 456.017 419.438C455.364 418.638 454.572 418.052 453.64 417.68C452.429 417.197 451.185 417.133 449.91 417.489C448.634 417.844 447.587 418.506 446.769 419.476L430.194 439.107Z" fill="url(#paint1_linear_152_126)"/>
</g>
<g filter="url(#filter2_df_152_126)">
<path d="M268.165 629.044C266.668 629.79 265.122 629.896 263.525 629.361C261.928 628.827 260.757 627.811 260.011 626.315L255.943 618.152L247.781 622.22C246.284 622.966 244.738 623.071 243.141 622.537C241.544 622.002 240.373 620.986 239.627 619.49L236.915 614.048L254.465 605.302L262.548 609.936C262.956 610.185 263.42 610.322 263.941 610.345C264.462 610.369 264.949 610.267 265.403 610.041C265.992 609.747 266.446 609.295 266.764 608.683C267.082 608.072 267.196 607.449 267.107 606.815L265.288 593.965L269.364 596.349C269.816 596.576 270.303 596.702 270.825 596.725C271.346 596.748 271.833 596.647 272.287 596.421L291.332 586.929L294.044 592.371C294.79 593.868 294.896 595.414 294.361 597.011C293.827 598.608 292.811 599.779 291.315 600.525L283.152 604.593L287.22 612.755C287.966 614.252 288.071 615.798 287.537 617.395C287.002 618.992 285.986 620.163 284.49 620.909L268.165 629.044ZM260.248 601.571L256.104 599.221C255.697 598.971 255.233 598.834 254.711 598.811C254.19 598.788 253.703 598.889 253.249 599.115L234.204 608.607L231.492 603.165C230.746 601.668 230.64 600.122 231.175 598.525C231.709 596.928 232.725 595.757 234.221 595.011L242.384 590.943L238.316 582.781C237.57 581.284 237.465 579.738 237.999 578.141C238.534 576.544 239.55 575.373 241.046 574.627L257.371 566.492C258.868 565.746 260.414 565.64 262.011 566.175C263.608 566.709 264.779 567.725 265.525 569.221L269.593 577.384L277.755 573.316C279.252 572.57 280.798 572.465 282.395 572.999C283.992 573.534 285.163 574.549 285.909 576.046L288.621 581.488L271.003 590.267L262.92 585.634C262.512 585.385 262.048 585.248 261.527 585.225C261.006 585.201 260.519 585.303 260.065 585.529C259.476 585.822 259.033 586.269 258.738 586.869C258.442 587.469 258.34 588.087 258.429 588.721L260.248 601.571Z" fill="url(#paint2_linear_152_126)"/>
</g>
<g filter="url(#filter3_df_152_126)">
<path d="M211.181 928.965C209.685 929.326 208.275 929.102 206.952 928.293C205.629 927.484 204.786 926.332 204.425 924.835L202.456 916.67L194.291 918.64C192.794 919.001 191.385 918.777 190.061 917.969C188.738 917.16 187.896 916.007 187.535 914.51L186.222 909.067L203.776 904.833L210.076 910.656C210.391 910.964 210.779 911.183 211.242 911.311C211.705 911.439 212.163 911.449 212.617 911.339C213.207 911.197 213.707 910.884 214.119 910.401C214.53 909.918 214.761 909.382 214.811 908.794L215.826 896.886L218.993 899.866C219.352 900.163 219.764 900.375 220.226 900.504C220.689 900.632 221.148 900.642 221.601 900.532L240.652 895.936L241.965 901.379C242.326 902.876 242.102 904.286 241.293 905.609C240.484 906.932 239.332 907.774 237.835 908.135L229.67 910.105L231.64 918.269C232.001 919.766 231.777 921.176 230.969 922.499C230.16 923.822 229.007 924.664 227.51 925.025L211.181 928.965ZM209.735 902.675L206.5 899.712C206.186 899.403 205.797 899.185 205.334 899.057C204.871 898.929 204.413 898.919 203.959 899.029L184.909 903.624L183.596 898.181C183.235 896.685 183.459 895.275 184.267 893.952C185.076 892.629 186.229 891.787 187.726 891.425L195.89 889.456L193.92 881.291C193.559 879.795 193.783 878.385 194.592 877.062C195.401 875.738 196.553 874.896 198.05 874.535L214.379 870.596C215.876 870.235 217.286 870.459 218.609 871.267C219.932 872.076 220.774 873.229 221.135 874.726L223.105 882.89L231.269 880.92C232.766 880.559 234.176 880.783 235.499 881.592C236.822 882.401 237.664 883.554 238.025 885.05L239.338 890.493L221.717 894.744L215.416 888.921C215.102 888.613 214.713 888.394 214.25 888.266C213.787 888.138 213.329 888.128 212.876 888.238C212.286 888.38 211.797 888.69 211.408 889.168C211.019 889.646 210.8 890.179 210.75 890.767L209.735 902.675Z" fill="url(#paint3_linear_152_126)"/>
</g>
<g filter="url(#filter4_df_152_126)">
<path d="M744.908 819.393C742.558 818.848 740.74 817.544 739.455 815.482C738.17 813.42 737.801 811.214 738.346 808.865L741.322 796.047L728.504 793.071C726.154 792.526 724.337 791.222 723.052 789.16C721.767 787.099 721.397 784.893 721.943 782.543L723.927 773.998L751.484 780.395L756.218 792.976C756.442 793.629 756.833 794.207 757.391 794.712C757.95 795.217 758.585 795.552 759.297 795.717C760.223 795.932 761.143 795.846 762.059 795.458C762.974 795.07 763.674 794.482 764.157 793.693L773.942 777.729L776.284 784.126C776.579 784.795 777.006 785.382 777.564 785.887C778.122 786.391 778.757 786.726 779.469 786.892L809.377 793.835L807.393 802.38C806.848 804.73 805.544 806.547 803.482 807.832C801.42 809.117 799.214 809.487 796.865 808.941L784.047 805.966L781.071 818.783C780.526 821.133 779.222 822.95 777.16 824.235C775.098 825.52 772.893 825.89 770.543 825.344L744.908 819.393ZM761.345 781.559L758.896 775.137C758.673 774.484 758.282 773.906 757.723 773.401C757.165 772.896 756.53 772.561 755.818 772.396L725.91 765.453L727.894 756.908C728.439 754.558 729.743 752.74 731.805 751.455C733.867 750.17 736.073 749.801 738.423 750.346L751.24 753.322L754.216 740.504C754.761 738.154 756.065 736.337 758.127 735.052C760.189 733.767 762.395 733.397 764.745 733.943L790.38 739.894C792.73 740.44 794.547 741.743 795.832 743.805C797.117 745.867 797.487 748.073 796.941 750.423L793.965 763.24L806.783 766.216C809.133 766.761 810.95 768.065 812.235 770.127C813.52 772.189 813.89 774.395 813.344 776.745L811.361 785.29L783.696 778.867L778.962 766.286C778.738 765.634 778.347 765.055 777.789 764.551C777.231 764.046 776.596 763.711 775.884 763.545C774.958 763.331 774.055 763.421 773.175 763.817C772.295 764.213 771.614 764.806 771.13 765.594L761.345 781.559Z" fill="url(#paint4_linear_152_126)"/>
</g>
<g filter="url(#filter5_d_152_126)">
<path d="M700.836 654.844C696.591 654.491 693.083 652.678 690.312 649.403C687.54 646.129 686.331 642.37 686.684 638.125L688.609 614.973L665.457 613.047C661.212 612.694 657.704 610.881 654.933 607.607C652.161 604.333 650.952 600.573 651.305 596.329L652.589 580.893L702.367 585.033L713.85 605.804C714.408 606.886 715.239 607.797 716.343 608.537C717.447 609.276 718.642 609.699 719.929 609.806C721.601 609.945 723.187 609.559 724.687 608.648C726.188 607.736 727.26 606.53 727.902 605.03L740.92 574.64L746.646 585.218C747.332 586.311 748.227 587.228 749.332 587.967C750.436 588.707 751.631 589.13 752.917 589.237L806.94 593.729L805.657 609.164C805.304 613.409 803.49 616.917 800.216 619.688C796.942 622.46 793.183 623.669 788.938 623.316L765.785 621.391L763.86 644.543C763.507 648.788 761.693 652.296 758.419 655.067C755.145 657.839 751.386 659.048 747.141 658.695L700.836 654.844ZM719.892 584.548L713.974 573.953C713.416 572.871 712.585 571.96 711.481 571.22C710.377 570.481 709.182 570.058 707.895 569.951L653.872 565.458L655.156 550.023C655.509 545.778 657.322 542.27 660.596 539.499C663.871 536.728 667.63 535.518 671.875 535.871L695.027 537.797L696.953 514.644C697.306 510.399 699.119 506.891 702.393 504.12C705.667 501.349 709.427 500.14 713.671 500.493L759.977 504.343C764.222 504.696 767.73 506.51 770.501 509.784C773.272 513.058 774.482 516.817 774.129 521.062L772.203 544.215L795.356 546.14C799.601 546.493 803.109 548.307 805.88 551.581C808.651 554.855 809.86 558.614 809.507 562.859L808.224 578.294L758.253 574.138L746.769 553.368C746.212 552.285 745.381 551.374 744.277 550.635C743.173 549.895 741.977 549.472 740.691 549.365C739.019 549.226 737.465 549.615 736.029 550.532C734.592 551.448 733.553 552.657 732.91 554.158L719.892 584.548Z" fill="url(#paint5_linear_152_126)"/>
</g>
<g filter="url(#filter6_d_152_126)">
<path d="M27.2573 840.886C22.68 839.097 19.3986 835.935 17.4133 831.401C15.428 826.867 15.3302 822.311 17.1197 817.734L26.8806 792.766L1.91318 783.005C-2.66419 781.216 -5.94552 778.054 -7.93081 773.52C-9.9161 768.986 -10.014 764.431 -8.22449 759.853L-1.71718 743.208L51.9628 764.194L57.8142 790.948C58.074 792.329 58.6924 793.61 59.6697 794.791C60.6469 795.973 61.8291 796.835 63.2161 797.377C65.0193 798.082 66.9008 798.178 68.8604 797.665C70.82 797.152 72.4026 796.171 73.6081 794.724L98.0208 765.41L100.865 778.995C101.264 780.43 101.951 781.738 102.929 782.92C103.906 784.101 105.088 784.963 106.475 785.506L164.732 808.281L158.225 824.926C156.436 829.504 153.274 832.785 148.74 834.77C144.206 836.755 139.65 836.853 135.073 835.064L110.105 825.303L100.344 850.27C98.555 854.848 95.3932 858.129 90.8592 860.114C86.3253 862.1 81.7696 862.198 77.1922 860.408L27.2573 840.886ZM71.5018 769.434L68.4494 755.768C68.1897 754.387 67.5712 753.106 66.594 751.925C65.6167 750.743 64.4346 749.881 63.0475 749.339L4.79012 726.563L11.2974 709.918C13.0869 705.341 16.2487 702.06 20.7827 700.074C25.3167 698.089 29.8723 697.991 34.4497 699.781L59.4171 709.542L69.1781 684.574C70.9676 679.997 74.1294 676.715 78.6633 674.73C83.1973 672.745 87.753 672.647 92.3304 674.436L142.265 693.958C146.843 695.748 150.124 698.91 152.109 703.444C154.095 707.978 154.192 712.533 152.403 717.111L142.642 742.078L167.609 751.839C172.187 753.629 175.468 756.79 177.453 761.324C179.439 765.858 179.537 770.414 177.747 774.991L171.24 791.636L117.352 770.569L111.5 743.815C111.241 742.435 110.622 741.153 109.645 739.972C108.668 738.79 107.485 737.928 106.098 737.386C104.295 736.681 102.448 736.599 100.558 737.139C98.668 737.679 97.12 738.673 95.9145 740.121L71.5018 769.434Z" fill="url(#paint6_linear_152_126)"/>
</g>
<g filter="url(#filter7_d_152_126)">
<path d="M575.017 256.498C570.459 254.869 567.136 251.851 565.05 247.445C562.964 243.038 562.736 238.556 564.365 233.998L573.251 209.133L548.387 200.247C543.828 198.618 540.506 195.6 538.42 191.193C536.334 186.787 536.105 182.305 537.735 177.746L543.659 161.17L597.117 180.275L603.654 206.446C603.95 207.798 604.596 209.041 605.592 210.176C606.589 211.311 607.777 212.125 609.159 212.619C610.955 213.261 612.81 213.301 614.724 212.739C616.639 212.177 618.168 211.166 619.313 209.705L642.499 180.137L645.693 193.429C646.127 194.831 646.842 196.099 647.838 197.234C648.835 198.369 650.024 199.183 651.405 199.677L709.422 220.411L703.498 236.988C701.869 241.546 698.851 244.869 694.445 246.955C690.038 249.041 685.556 249.269 680.997 247.64L656.133 238.754L647.247 263.618C645.618 268.177 642.6 271.499 638.193 273.585C633.787 275.671 629.305 275.9 624.746 274.27L575.017 256.498ZM616.506 184.868L613.105 171.502C612.809 170.15 612.163 168.906 611.167 167.771C610.17 166.636 608.981 165.822 607.6 165.328L549.583 144.594L555.507 128.017C557.136 123.459 560.154 120.136 564.56 118.05C568.967 115.964 573.449 115.736 578.008 117.365L602.872 126.251L611.758 101.387C613.387 96.8283 616.405 93.506 620.812 91.4199C625.218 89.3339 629.7 89.1054 634.259 90.7346L683.988 108.507C688.546 110.136 691.869 113.154 693.955 117.56C696.041 121.967 696.269 126.449 694.64 131.008L685.754 155.872L710.618 164.758C715.177 166.387 718.499 169.405 720.585 173.812C722.671 178.218 722.9 182.7 721.27 187.259L715.346 203.835L661.68 184.656L655.144 158.485C654.848 157.133 654.202 155.89 653.206 154.755C652.209 153.62 651.02 152.806 649.639 152.312C647.843 151.67 646.023 151.643 644.177 152.229C642.332 152.816 640.837 153.839 639.692 155.3L616.506 184.868Z" fill="url(#paint7_linear_152_126)"/>
</g>
<g filter="url(#filter8_d_152_126)">
<path d="M589.448 1004.76C585.261 1003.7 582.055 1001.3 579.83 997.562C577.605 993.824 577.023 989.862 578.084 985.675L583.876 962.838L561.039 957.047C556.852 955.985 553.646 953.585 551.42 949.848C549.195 946.11 548.613 942.148 549.675 937.961L553.536 922.736L602.636 935.188L610.654 957.881C611.031 959.057 611.71 960.107 612.691 961.031C613.672 961.955 614.797 962.577 616.065 962.899C617.715 963.317 619.366 963.196 621.019 962.535C622.672 961.874 623.945 960.846 624.839 959.453L642.934 931.229L646.895 942.766C647.399 943.974 648.141 945.04 649.122 945.964C650.103 946.887 651.228 947.51 652.497 947.832L705.783 961.345L701.922 976.57C700.861 980.757 698.461 983.963 694.723 986.188C690.986 988.414 687.023 988.996 682.837 987.934L660 982.142L654.208 1004.98C653.146 1009.17 650.747 1012.37 647.009 1014.6C643.272 1016.82 639.309 1017.41 635.123 1016.34L589.448 1004.76ZM620.246 937.628L616.095 926.043C615.718 924.867 615.039 923.817 614.058 922.893C613.077 921.969 611.952 921.346 610.683 921.025L557.397 907.511L561.258 892.287C562.319 888.1 564.719 884.894 568.457 882.668C572.194 880.443 576.156 879.861 580.343 880.923L603.18 886.714L608.972 863.877C610.033 859.69 612.433 856.484 616.171 854.259C619.908 852.033 623.871 851.451 628.057 852.513L673.732 864.096C677.918 865.158 681.125 867.557 683.35 871.295C685.575 875.033 686.157 878.995 685.095 883.182L679.304 906.019L702.141 911.81C706.328 912.872 709.534 915.272 711.76 919.009C713.985 922.747 714.567 926.709 713.505 930.896L709.644 946.121L660.354 933.621L652.336 910.927C651.959 909.752 651.28 908.702 650.299 907.778C649.318 906.854 648.193 906.231 646.924 905.909C645.275 905.491 643.655 905.62 642.066 906.298C640.476 906.975 639.235 908.01 638.341 909.404L620.246 937.628Z" fill="url(#paint8_linear_152_126)"/>
</g>
<g filter="url(#filter9_d_152_126)">
<path d="M467.032 775.412C450.568 779.539 435.092 777.261 420.603 768.579C406.114 759.898 396.806 747.325 392.68 730.862L391.361 725.603C377.717 726.755 365.279 723.349 354.049 715.387C342.82 707.43 335.486 696.593 332.047 682.873L320.585 637.141C319.935 634.55 320.269 632.156 321.585 629.96C322.896 627.771 324.847 626.352 327.439 625.703L345.731 621.118C345.082 618.526 345.412 616.133 346.722 613.938C348.039 611.748 349.994 610.328 352.585 609.679C355.177 609.029 357.57 609.36 359.765 610.669C361.955 611.987 363.375 613.941 364.024 616.533L368.609 634.826C369.258 637.417 368.928 639.81 367.618 642.005C366.301 644.195 364.347 645.615 361.755 646.264C359.164 646.914 356.771 646.584 354.576 645.274C352.386 643.956 350.966 642.002 350.316 639.41L341.17 641.703L350.34 678.288C352.861 688.349 358.602 696.064 367.563 701.433C376.523 706.802 386.034 708.225 396.095 705.704C406.156 703.182 413.871 697.441 419.24 688.481C424.608 679.52 426.032 670.01 423.51 659.949L414.341 623.363L405.194 625.656C405.844 628.247 405.514 630.64 404.204 632.835C402.886 635.025 400.932 636.445 398.34 637.095C395.749 637.744 393.359 637.413 391.17 636.102C388.974 634.786 387.551 632.832 386.902 630.241L382.317 611.948C381.667 609.357 382 606.963 383.316 604.766C384.628 602.578 386.579 601.159 389.171 600.509C391.762 599.86 394.155 600.19 396.35 601.5C398.54 602.817 399.96 604.772 400.609 607.363L418.902 602.778C421.494 602.129 423.887 602.459 426.081 603.769C428.271 605.086 429.691 607.041 430.341 609.632L441.803 655.364C445.242 669.083 443.886 682.099 437.738 694.411C431.59 706.729 422.229 715.598 409.654 721.018L410.972 726.277C413.838 737.71 420.274 746.427 430.28 752.428C440.292 758.421 451.014 759.985 462.447 757.12C473.88 754.254 482.596 747.818 488.597 737.811C494.591 727.8 496.155 717.078 493.289 705.645L489.449 690.325C483.617 689.681 478.403 687.465 473.805 683.68C469.212 679.886 466.171 675.017 464.681 669.072C462.77 661.45 463.814 654.302 467.812 647.63C471.81 640.957 477.62 636.666 485.242 634.755C492.864 632.845 500.011 633.889 506.684 637.887C513.357 641.885 517.648 647.695 519.559 655.317C521.049 661.262 520.663 666.99 518.403 672.502C516.134 678.008 512.581 682.421 507.742 685.74L511.582 701.06C515.708 717.524 513.431 733 504.749 747.489C496.067 761.978 483.495 771.286 467.032 775.412Z" fill="url(#paint9_linear_152_126)"/>
</g>
<g filter="url(#filter10_d_152_126)">
<path d="M196.625 173.372C177.48 178.17 159.484 175.522 142.636 165.427C125.787 155.331 114.964 140.712 110.166 121.567L108.633 115.452C92.7663 116.791 78.3035 112.831 65.2442 103.572C52.1867 94.3203 43.6586 81.7176 39.6601 65.7641L26.3314 12.5858C25.5762 9.57235 25.9636 6.78869 27.4939 4.23483C29.0188 1.68983 31.2879 0.0396841 34.3014 -0.715604L55.5727 -6.04705C54.8174 -9.06049 55.2014 -11.8433 56.7245 -14.3953C58.2565 -16.9421 60.5292 -18.5931 63.5427 -19.3484C66.5561 -20.1037 69.3389 -19.7198 71.8909 -18.1967C74.4377 -16.6647 76.0888 -14.3919 76.844 -11.3785L82.1755 9.89284C82.9308 12.9063 82.5469 15.689 81.0237 18.2411C79.4917 20.7879 77.219 22.4389 74.2056 23.1942C71.1921 23.9495 68.4094 23.5656 65.8573 22.0424C63.3105 20.5104 61.6595 18.2377 60.9042 15.2243L50.2685 17.89L60.9314 60.4327C63.8637 72.1319 70.5395 81.1031 80.959 87.3462C91.3784 93.5893 102.438 95.2447 114.137 92.3124C125.836 89.3801 134.807 82.7043 141.05 72.2849C147.294 61.8654 148.949 50.8061 146.017 39.1069L135.354 -3.43577L124.718 -0.770052C125.473 2.24338 125.09 5.02615 123.566 7.57823C122.034 10.125 119.762 11.776 116.748 12.5313C113.735 13.2866 110.956 12.9018 108.411 11.3769C105.857 9.84666 104.202 7.57483 103.447 4.56139L98.1154 -16.7099C97.3601 -19.7234 97.7476 -22.507 99.2778 -25.0609C100.803 -27.6059 103.072 -29.256 106.085 -30.0113C109.099 -30.7666 111.882 -30.3827 114.434 -28.8596C116.98 -27.3275 118.631 -25.0548 119.387 -22.0414L140.658 -27.3728C143.671 -28.1281 146.454 -27.7442 149.006 -26.2211C151.553 -24.689 153.204 -22.4163 153.959 -19.4029L167.288 33.7754C171.287 49.7289 169.711 64.8641 162.561 79.1808C155.412 93.5047 144.527 103.818 129.904 110.12L131.437 116.236C134.769 129.53 142.253 139.667 153.889 146.645C165.531 153.614 177.999 155.433 191.293 152.101C204.588 148.768 214.724 141.284 221.702 129.648C228.671 118.007 230.49 105.539 227.158 92.2444L222.693 74.4296C215.911 73.6802 209.847 71.1044 204.501 66.702C199.16 62.2907 195.624 56.6285 193.891 49.7153C191.669 40.8523 192.883 32.5412 197.532 24.782C202.181 17.0229 208.938 12.0326 217.801 9.81116C226.664 7.58973 234.975 8.80358 242.734 13.4527C250.493 18.1018 255.483 24.8579 257.705 33.721C259.438 40.6342 258.989 47.2951 256.361 53.7039C253.723 60.1074 249.591 65.2388 243.964 69.0982L248.429 86.9129C253.228 106.057 250.579 124.053 240.484 140.902C230.389 157.75 215.769 168.574 196.625 173.372Z" fill="url(#paint10_linear_152_126)"/>
</g>
<g filter="url(#filter11_d_152_126)">
<path d="M350.578 1096.42C335.339 1086.72 325.769 1073.09 321.87 1055.54C317.972 1038 320.872 1021.6 330.572 1006.36L333.67 1001.49C322.792 991.793 316.319 979.69 314.249 965.184C312.177 950.684 315.182 937.084 323.265 924.384L350.208 882.052C351.735 879.653 353.828 878.158 356.489 877.567C359.14 876.978 361.664 877.447 364.063 878.974L380.996 889.751C382.523 887.352 384.614 885.855 387.268 885.261C389.925 884.675 392.453 885.146 394.852 886.673C397.251 888.2 398.747 890.29 399.342 892.945C399.927 895.601 399.456 898.129 397.93 900.528L387.152 917.461C385.626 919.86 383.535 921.357 380.88 921.951C378.224 922.537 375.696 922.066 373.297 920.539C370.898 919.012 369.402 916.922 368.807 914.267C368.222 911.611 368.692 909.083 370.219 906.684L361.753 901.295L340.198 935.162C334.271 944.475 332.512 954.558 334.923 965.411C337.334 976.265 343.197 984.655 352.51 990.583C361.823 996.51 371.906 998.268 382.76 995.857C393.613 993.446 402.003 987.584 407.931 978.271L429.485 944.404L421.019 939.016C419.492 941.415 417.401 942.911 414.747 943.506C412.09 944.091 409.562 943.621 407.163 942.094C404.765 940.567 403.271 938.478 402.682 935.827C402.091 933.167 402.559 930.637 404.086 928.239L414.863 911.305C416.39 908.906 418.483 907.412 421.143 906.821C423.794 906.232 426.319 906.701 428.718 908.227C431.117 909.754 432.614 911.845 433.208 914.499C433.793 917.156 433.323 919.684 431.796 922.083L448.729 932.86C451.128 934.387 452.625 936.477 453.219 939.132C453.805 941.789 453.334 944.316 451.807 946.715L424.864 989.048C416.781 1001.75 405.733 1010.23 391.719 1014.49C377.701 1018.76 363.996 1018.02 350.603 1012.27L347.505 1017.14C340.769 1027.72 338.745 1039.07 341.434 1051.2C344.132 1063.32 350.772 1072.75 361.356 1079.49C371.939 1086.22 383.293 1088.25 395.417 1085.56C407.539 1082.86 416.968 1076.22 423.704 1065.64L432.73 1051.45C428.959 1046.48 426.853 1040.83 426.413 1034.5C425.981 1028.18 427.517 1022.26 431.02 1016.76C435.51 1009.7 441.797 1005.28 449.879 1003.48C457.961 1001.69 465.53 1003.03 472.585 1007.52C479.641 1012.02 484.066 1018.3 485.862 1026.38C487.657 1034.47 486.31 1042.03 481.819 1049.09C478.317 1054.59 473.609 1058.49 467.696 1060.78C461.78 1063.06 455.77 1063.54 449.663 1062.23L440.637 1076.41C430.938 1091.65 417.313 1101.22 399.763 1105.12C382.213 1109.02 365.818 1106.12 350.578 1096.42Z" fill="url(#paint11_linear_152_126)"/>
</g>
<g filter="url(#filter12_df_152_126)">
<path d="M403.408 237.388C395.676 235.316 389.818 230.831 385.835 223.932C381.852 217.033 380.896 209.718 382.968 201.986L383.63 199.516C377.742 196.864 373.395 192.61 370.59 186.754C367.785 180.901 367.245 174.753 368.972 168.31L374.727 146.832C375.053 145.615 375.739 144.704 376.785 144.101C377.827 143.499 378.956 143.361 380.173 143.687L388.764 145.989C389.091 144.772 389.775 143.861 390.818 143.257C391.863 142.656 392.994 142.519 394.211 142.845C395.428 143.171 396.339 143.855 396.943 144.898C397.544 145.943 397.682 147.074 397.356 148.291L395.054 156.882C394.727 158.099 394.043 159.01 393 159.615C391.955 160.216 390.824 160.353 389.607 160.027C388.39 159.701 387.479 159.016 386.875 157.973C386.274 156.928 386.136 155.797 386.462 154.58L382.167 153.429L377.563 170.612C376.297 175.337 376.895 179.832 379.359 184.099C381.822 188.365 385.416 191.132 390.141 192.398C394.866 193.664 399.362 193.065 403.629 190.602C407.895 188.139 410.661 184.545 411.927 179.819L416.531 162.637L412.236 161.486C411.91 162.703 411.225 163.614 410.182 164.219C409.137 164.82 408.006 164.957 406.789 164.631C405.572 164.305 404.663 163.621 404.061 162.579C403.457 161.533 403.319 160.401 403.645 159.184L405.947 150.593C406.273 149.376 406.959 148.466 408.004 147.862C409.047 147.26 410.176 147.123 411.393 147.449C412.61 147.775 413.521 148.459 414.126 149.502C414.726 150.547 414.864 151.678 414.538 152.895L423.129 155.197C424.346 155.523 425.257 156.208 425.861 157.251C426.462 158.296 426.599 159.427 426.273 160.644L420.518 182.121C418.792 188.565 415.251 193.619 409.895 197.285C404.538 200.954 398.647 202.465 392.221 201.818L391.559 204.288C390.121 209.657 390.776 214.725 393.526 219.492C396.279 224.257 400.34 227.358 405.71 228.797C411.079 230.236 416.147 229.58 420.914 226.831C425.679 224.077 428.78 220.016 430.219 214.646L432.147 207.451C429.891 205.849 428.249 203.741 427.221 201.127C426.197 198.511 426.059 195.807 426.808 193.015C427.767 189.435 429.835 186.728 433.012 184.894C436.189 183.059 439.568 182.622 443.147 183.581C446.727 184.54 449.434 186.608 451.268 189.785C453.102 192.962 453.54 196.341 452.581 199.92C451.833 202.713 450.361 204.985 448.166 206.739C445.969 208.489 443.493 209.494 440.738 209.753L438.81 216.948C436.738 224.68 432.253 230.538 425.354 234.521C418.455 238.504 411.14 239.46 403.408 237.388Z" fill="url(#paint12_linear_152_126)"/>
</g>
<g filter="url(#filter13_df_152_126)">
<path d="M703.835 419.581C698.236 420.718 693.067 419.718 688.326 416.579C683.586 413.439 680.647 409.071 679.509 403.472L679.145 401.683C674.54 401.864 670.409 400.53 666.753 397.682C663.098 394.836 660.796 391.081 659.848 386.415L656.688 370.863C656.508 369.982 656.657 369.182 657.133 368.463C657.607 367.747 658.285 367.3 659.166 367.121L665.387 365.856C665.207 364.975 665.355 364.175 665.829 363.457C666.305 362.741 666.984 362.293 667.865 362.114C668.746 361.935 669.546 362.082 670.264 362.556C670.98 363.032 671.428 363.711 671.607 364.592L672.872 370.813C673.051 371.694 672.903 372.494 672.43 373.212C671.953 373.928 671.275 374.376 670.393 374.555C669.512 374.734 668.712 374.587 667.994 374.113C667.278 373.637 666.83 372.958 666.651 372.077L663.54 372.709L666.069 385.151C666.764 388.572 668.578 391.254 671.509 393.195C674.441 395.136 677.617 395.759 681.039 395.064C684.46 394.368 687.142 392.555 689.083 389.623C691.024 386.692 691.647 383.515 690.952 380.094L688.423 367.652L685.313 368.284C685.492 369.166 685.345 369.965 684.871 370.684C684.395 371.4 683.716 371.848 682.835 372.027C681.954 372.206 681.155 372.058 680.439 371.584C679.72 371.108 679.271 370.43 679.092 369.549L677.828 363.328C677.649 362.447 677.797 361.647 678.273 360.928C678.747 360.212 679.425 359.764 680.306 359.585C681.188 359.406 681.987 359.554 682.705 360.027C683.422 360.504 683.87 361.182 684.049 362.064L690.27 360.799C691.151 360.62 691.951 360.768 692.669 361.241C693.385 361.718 693.833 362.396 694.012 363.278L697.173 378.83C698.121 383.495 697.468 387.851 695.213 391.898C692.959 395.947 689.677 398.787 685.366 400.419L685.73 402.208C686.52 406.096 688.552 409.124 691.826 411.294C695.101 413.461 698.683 414.15 702.571 413.36C706.459 412.57 709.488 410.538 711.657 407.264C713.825 403.988 714.513 400.407 713.723 396.519L712.664 391.309C710.713 391.004 708.993 390.18 707.504 388.837C706.017 387.491 705.069 385.808 704.658 383.786C704.131 381.194 704.59 378.807 706.036 376.623C707.482 374.44 709.501 373.085 712.092 372.559C714.684 372.032 717.072 372.491 719.255 373.937C721.438 375.383 722.793 377.401 723.32 379.993C723.731 382.015 723.514 383.936 722.671 385.754C721.824 387.572 720.562 389.002 718.885 390.044L719.944 395.254C721.082 400.853 720.081 406.023 716.942 410.763C713.803 415.504 709.434 418.443 703.835 419.581Z" fill="url(#paint13_linear_152_126)"/>
</g>
<defs>
<filter id="filter0_d_152_126" x="40.105" y="250.429" width="230.353" height="230.353" filterUnits="userSpaceOnUse" color-interpolation-filters="sRGB">
<feFlood flood-opacity="0" result="BackgroundImageFix"/>
<feColorMatrix in="SourceAlpha" type="matrix" values="0 0 0 0 0 0 0 0 0 0 0 0 0 0 0 0 0 0 127 0" result="hardAlpha"/>
<feOffset dy="4"/>
<feGaussianBlur stdDeviation="2"/>
<feComposite in2="hardAlpha" operator="out"/>
<feColorMatrix type="matrix" values="0 0 0 0 0 0 0 0 0 0 0 0 0 0 0 0 0 0 0.25 0"/>
<feBlend mode="normal" in2="BackgroundImageFix" result="effect1_dropShadow_152_126"/>
<feBlend mode="normal" in="SourceGraphic" in2="effect1_dropShadow_152_126" result="shape"/>
</filter>
<filter id="filter1_df_152_126" x="368.456" y="367.135" width="141.353" height="142.153" filterUnits="userSpaceOnUse" color-interpolation-filters="sRGB">
<feFlood flood-opacity="0" result="BackgroundImageFix"/>
<feColorMatrix in="SourceAlpha" type="matrix" values="0 0 0 0 0 0 0 0 0 0 0 0 0 0 0 0 0 0 127 0" result="hardAlpha"/>
<feOffset dy="4"/>
<feGaussianBlur stdDeviation="2"/>
<feComposite in2="hardAlpha" operator="out"/>
<feColorMatrix type="matrix" values="0 0 0 0 0 0 0 0 0 0 0 0 0 0 0 0 0 0 0.25 0"/>
<feBlend mode="normal" in2="BackgroundImageFix" result="effect1_dropShadow_152_126"/>
<feBlend mode="normal" in="SourceGraphic" in2="effect1_dropShadow_152_126" result="shape"/>
<feGaussianBlur stdDeviation="3.6" result="effect2_foregroundBlur_152_126"/>
</filter>
<filter id="filter2_df_152_126" x="223.64" y="558.64" width="78.2558" height="79.0559" filterUnits="userSpaceOnUse" color-interpolation-filters="sRGB">
<feFlood flood-opacity="0" result="BackgroundImageFix"/>
<feColorMatrix in="SourceAlpha" type="matrix" values="0 0 0 0 0 0 0 0 0 0 0 0 0 0 0 0 0 0 127 0" result="hardAlpha"/>
<feOffset dy="4"/>
<feGaussianBlur stdDeviation="2"/>
<feComposite in2="hardAlpha" operator="out"/>
<feColorMatrix type="matrix" values="0 0 0 0 0 0 0 0 0 0 0 0 0 0 0 0 0 0 0.25 0"/>
<feBlend mode="normal" in2="BackgroundImageFix" result="effect1_dropShadow_152_126"/>
<feBlend mode="normal" in="SourceGraphic" in2="effect1_dropShadow_152_126" result="shape"/>
<feGaussianBlur stdDeviation="3.6" result="effect2_foregroundBlur_152_126"/>
</filter>
<filter id="filter3_df_152_126" x="176.229" y="863.229" width="73.1031" height="73.9032" filterUnits="userSpaceOnUse" color-interpolation-filters="sRGB">
<feFlood flood-opacity="0" result="BackgroundImageFix"/>
<feColorMatrix in="SourceAlpha" type="matrix" values="0 0 0 0 0 0 0 0 0 0 0 0 0 0 0 0 0 0 127 0" result="hardAlpha"/>
<feOffset dy="4"/>
<feGaussianBlur stdDeviation="2"/>
<feComposite in2="hardAlpha" operator="out"/>
<feColorMatrix type="matrix" values="0 0 0 0 0 0 0 0 0 0 0 0 0 0 0 0 0 0 0.25 0"/>
<feBlend mode="normal" in2="BackgroundImageFix" result="effect1_dropShadow_152_126"/>
<feBlend mode="normal" in="SourceGraphic" in2="effect1_dropShadow_152_126" result="shape"/>
<feGaussianBlur stdDeviation="3.6" result="effect2_foregroundBlur_152_126"/>
</filter>
<filter id="filter4_df_152_126" x="714.499" y="726.499" width="106.289" height="107.089" filterUnits="userSpaceOnUse" color-interpolation-filters="sRGB">
<feFlood flood-opacity="0" result="BackgroundImageFix"/>
<feColorMatrix in="SourceAlpha" type="matrix" values="0 0 0 0 0 0 0 0 0 0 0 0 0 0 0 0 0 0 127 0" result="hardAlpha"/>
<feOffset dy="4"/>
<feGaussianBlur stdDeviation="2"/>
<feComposite in2="hardAlpha" operator="out"/>
<feColorMatrix type="matrix" values="0 0 0 0 0 0 0 0 0 0 0 0 0 0 0 0 0 0 0.25 0"/>
<feBlend mode="normal" in2="BackgroundImageFix" result="effect1_dropShadow_152_126"/>
<feBlend mode="normal" in="SourceGraphic" in2="effect1_dropShadow_152_126" result="shape"/>
<feGaussianBlur stdDeviation="3.6" result="effect2_foregroundBlur_152_126"/>
</filter>
<filter id="filter5_d_152_126" x="647.245" y="500.433" width="166.322" height="167.322" filterUnits="userSpaceOnUse" color-interpolation-filters="sRGB">
<feFlood flood-opacity="0" result="BackgroundImageFix"/>
<feColorMatrix in="SourceAlpha" type="matrix" values="0 0 0 0 0 0 0 0 0 0 0 0 0 0 0 0 0 0 127 0" result="hardAlpha"/>
<feOffset dy="5"/>
<feGaussianBlur stdDeviation="2"/>
<feComposite in2="hardAlpha" operator="out"/>
<feColorMatrix type="matrix" values="0 0 0 0 0 0 0 0 0 0 0 0 0 0 0 0 0 0 0.25 0"/>
<feBlend mode="normal" in2="BackgroundImageFix" result="effect1_dropShadow_152_126"/>
<feBlend mode="normal" in="SourceGraphic" in2="effect1_dropShadow_152_126" result="shape"/>
</filter>
<filter id="filter6_d_152_126" x="-13.4969" y="673.164" width="196.517" height="197.517" filterUnits="userSpaceOnUse" color-interpolation-filters="sRGB">
<feFlood flood-opacity="0" result="BackgroundImageFix"/>
<feColorMatrix in="SourceAlpha" type="matrix" values="0 0 0 0 0 0 0 0 0 0 0 0 0 0 0 0 0 0 127 0" result="hardAlpha"/>
<feOffset dy="5"/>
<feGaussianBlur stdDeviation="2"/>
<feComposite in2="hardAlpha" operator="out"/>
<feColorMatrix type="matrix" values="0 0 0 0 0 0 0 0 0 0 0 0 0 0 0 0 0 0 0.25 0"/>
<feBlend mode="normal" in2="BackgroundImageFix" result="effect1_dropShadow_152_126"/>
<feBlend mode="normal" in="SourceGraphic" in2="effect1_dropShadow_152_126" result="shape"/>
</filter>
<filter id="filter7_d_152_126" x="532.663" y="89.663" width="193.679" height="194.679" filterUnits="userSpaceOnUse" color-interpolation-filters="sRGB">
<feFlood flood-opacity="0" result="BackgroundImageFix"/>
<feColorMatrix in="SourceAlpha" type="matrix" values="0 0 0 0 0 0 0 0 0 0 0 0 0 0 0 0 0 0 127 0" result="hardAlpha"/>
<feOffset dy="5"/>
<feGaussianBlur stdDeviation="2"/>
<feComposite in2="hardAlpha" operator="out"/>
<feColorMatrix type="matrix" values="0 0 0 0 0 0 0 0 0 0 0 0 0 0 0 0 0 0 0.25 0"/>
<feBlend mode="normal" in2="BackgroundImageFix" result="effect1_dropShadow_152_126"/>
<feBlend mode="normal" in="SourceGraphic" in2="effect1_dropShadow_152_126" result="shape"/>
</filter>
<filter id="filter8_d_152_126" x="545.16" y="851.999" width="172.859" height="173.859" filterUnits="userSpaceOnUse" color-interpolation-filters="sRGB">
<feFlood flood-opacity="0" result="BackgroundImageFix"/>
<feColorMatrix in="SourceAlpha" type="matrix" values="0 0 0 0 0 0 0 0 0 0 0 0 0 0 0 0 0 0 127 0" result="hardAlpha"/>
<feOffset dy="5"/>
<feGaussianBlur stdDeviation="2"/>
<feComposite in2="hardAlpha" operator="out"/>
<feColorMatrix type="matrix" values="0 0 0 0 0 0 0 0 0 0 0 0 0 0 0 0 0 0 0.25 0"/>
<feBlend mode="normal" in2="BackgroundImageFix" result="effect1_dropShadow_152_126"/>
<feBlend mode="normal" in="SourceGraphic" in2="effect1_dropShadow_152_126" result="shape"/>
</filter>
<filter id="filter9_d_152_126" x="316.263" y="600.186" width="208.183" height="188.22" filterUnits="userSpaceOnUse" color-interpolation-filters="sRGB">
<feFlood flood-opacity="0" result="BackgroundImageFix"/>
<feColorMatrix in="SourceAlpha" type="matrix" values="0 0 0 0 0 0 0 0 0 0 0 0 0 0 0 0 0 0 127 0" result="hardAlpha"/>
<feOffset dy="7"/>
<feGaussianBlur stdDeviation="2"/>
<feComposite in2="hardAlpha" operator="out"/>
<feColorMatrix type="matrix" values="0 0 0 0 0 0 0 0 0 0 0 0 0 0 0 0 0 0 0.25 0"/>
<feBlend mode="normal" in2="BackgroundImageFix" result="effect1_dropShadow_152_126"/>
<feBlend mode="normal" in="SourceGraphic" in2="effect1_dropShadow_152_126" result="shape"/>
</filter>
<filter id="filter10_d_152_126" x="21.957" y="-30.3869" width="240.78" height="217.078" filterUnits="userSpaceOnUse" color-interpolation-filters="sRGB">
<feFlood flood-opacity="0" result="BackgroundImageFix"/>
<feColorMatrix in="SourceAlpha" type="matrix" values="0 0 0 0 0 0 0 0 0 0 0 0 0 0 0 0 0 0 127 0" result="hardAlpha"/>
<feOffset dy="7"/>
<feGaussianBlur stdDeviation="2"/>
<feComposite in2="hardAlpha" operator="out"/>
<feColorMatrix type="matrix" values="0 0 0 0 0 0 0 0 0 0 0 0 0 0 0 0 0 0 0.25 0"/>
<feBlend mode="normal" in2="BackgroundImageFix" result="effect1_dropShadow_152_126"/>
<feBlend mode="normal" in="SourceGraphic" in2="effect1_dropShadow_152_126" result="shape"/>
</filter>
<filter id="filter11_d_152_126" x="309.615" y="877.321" width="181.016" height="240.476" filterUnits="userSpaceOnUse" color-interpolation-filters="sRGB">
<feFlood flood-opacity="0" result="BackgroundImageFix"/>
<feColorMatrix in="SourceAlpha" type="matrix" values="0 0 0 0 0 0 0 0 0 0 0 0 0 0 0 0 0 0 127 0" result="hardAlpha"/>
<feOffset dy="7"/>
<feGaussianBlur stdDeviation="2"/>
<feComposite in2="hardAlpha" operator="out"/>
<feColorMatrix type="matrix" values="0 0 0 0 0 0 0 0 0 0 0 0 0 0 0 0 0 0 0.25 0"/>
<feBlend mode="normal" in2="BackgroundImageFix" result="effect1_dropShadow_152_126"/>
<feBlend mode="normal" in="SourceGraphic" in2="effect1_dropShadow_152_126" result="shape"/>
</filter>
<filter id="filter12_df_152_126" x="363.985" y="138.673" width="93.0895" height="107.779" filterUnits="userSpaceOnUse" color-interpolation-filters="sRGB">
<feFlood flood-opacity="0" result="BackgroundImageFix"/>
<feColorMatrix in="SourceAlpha" type="matrix" values="0 0 0 0 0 0 0 0 0 0 0 0 0 0 0 0 0 0 127 0" result="hardAlpha"/>
<feOffset dy="4"/>
<feGaussianBlur stdDeviation="2"/>
<feComposite in2="hardAlpha" operator="out"/>
<feColorMatrix type="matrix" values="0 0 0 0 0 0 0 0 0 0 0 0 0 0 0 0 0 0 0.25 0"/>
<feBlend mode="normal" in2="BackgroundImageFix" result="effect1_dropShadow_152_126"/>
<feBlend mode="normal" in="SourceGraphic" in2="effect1_dropShadow_152_126" result="shape"/>
<feGaussianBlur stdDeviation="2" result="effect2_foregroundBlur_152_126"/>
</filter>
<filter id="filter13_df_152_126" x="652.614" y="355.512" width="74.9077" height="72.5229" filterUnits="userSpaceOnUse" color-interpolation-filters="sRGB">
<feFlood flood-opacity="0" result="BackgroundImageFix"/>
<feColorMatrix in="SourceAlpha" type="matrix" values="0 0 0 0 0 0 0 0 0 0 0 0 0 0 0 0 0 0 127 0" result="hardAlpha"/>
<feOffset dy="4"/>
<feGaussianBlur stdDeviation="2"/>
<feComposite in2="hardAlpha" operator="out"/>
<feColorMatrix type="matrix" values="0 0 0 0 0 0 0 0 0 0 0 0 0 0 0 0 0 0 0.25 0"/>
<feBlend mode="normal" in2="BackgroundImageFix" result="effect1_dropShadow_152_126"/>
<feBlend mode="normal" in="SourceGraphic" in2="effect1_dropShadow_152_126" result="shape"/>
<feGaussianBlur stdDeviation="2" result="effect2_foregroundBlur_152_126"/>
</filter>
<linearGradient id="paint0_linear_152_126" x1="148.308" y1="253.915" x2="148.528" y2="534.265" gradientUnits="userSpaceOnUse">
<stop stop-color="#1C4033"/>
<stop offset="1" stop-color="#5DB091"/>
</linearGradient>
<linearGradient id="paint1_linear_152_126" x1="476.464" y1="388.797" x2="371.551" y2="509.68" gradientUnits="userSpaceOnUse">
<stop stop-color="#1C4033"/>
<stop offset="1" stop-color="#5DB091"/>
</linearGradient>
<linearGradient id="paint2_linear_152_126" x1="256.864" y1="567.211" x2="267.103" y2="647.411" gradientUnits="userSpaceOnUse">
<stop stop-color="#1C4033"/>
<stop offset="1" stop-color="#5DB091"/>
</linearGradient>
<linearGradient id="paint3_linear_152_126" x1="213.776" y1="871.137" x2="206.445" y2="945.231" gradientUnits="userSpaceOnUse">
<stop stop-color="#1C4033"/>
<stop offset="1" stop-color="#5DB091"/>
</linearGradient>
<linearGradient id="paint4_linear_152_126" x1="789.154" y1="740.228" x2="726.849" y2="838.848" gradientUnits="userSpaceOnUse">
<stop stop-color="#1C4033"/>
<stop offset="1" stop-color="#5DB091"/>
</linearGradient>
<linearGradient id="paint5_linear_152_126" x1="757.922" y1="505.24" x2="674.255" y2="693.443" gradientUnits="userSpaceOnUse">
<stop stop-color="#1C4033"/>
<stop offset="1" stop-color="#5DB091"/>
</linearGradient>
<linearGradient id="paint6_linear_152_126" x1="139.697" y1="694.272" x2="-14.859" y2="874.807" gradientUnits="userSpaceOnUse">
<stop stop-color="#1C4033"/>
<stop offset="1" stop-color="#5DB091"/>
</linearGradient>
<linearGradient id="paint7_linear_152_126" x1="681.468" y1="108.891" x2="534.535" y2="291.116" gradientUnits="userSpaceOnUse">
<stop stop-color="#1C4033"/>
<stop offset="1" stop-color="#5DB091"/>
</linearGradient>
<linearGradient id="paint8_linear_152_126" x1="671.526" y1="864.65" x2="556.416" y2="1038.93" gradientUnits="userSpaceOnUse">
<stop stop-color="#1C4033"/>
<stop offset="1" stop-color="#5DB091"/>
</linearGradient>
<linearGradient id="paint9_linear_152_126" x1="432.886" y1="590.888" x2="410.405" y2="840.655" gradientUnits="userSpaceOnUse">
<stop stop-color="#70998A"/>
<stop offset="1" stop-color="#327C61"/>
</linearGradient>
<linearGradient id="paint10_linear_152_126" x1="156.919" y1="-41.1992" x2="130.777" y2="249.239" gradientUnits="userSpaceOnUse">
<stop stop-color="#70998A"/>
<stop offset="1" stop-color="#327C61"/>
</linearGradient>
<linearGradient id="paint11_linear_152_126" x1="468.152" y1="934.96" x2="258.717" y2="1100.43" gradientUnits="userSpaceOnUse">
<stop stop-color="#70998A"/>
<stop offset="1" stop-color="#327C61"/>
</linearGradient>
<linearGradient id="paint12_linear_152_126" x1="431.618" y1="153.5" x2="365.115" y2="251.305" gradientUnits="userSpaceOnUse">
<stop stop-color="#70998A"/>
<stop offset="1" stop-color="#327C61"/>
</linearGradient>
<linearGradient id="paint13_linear_152_126" x1="695.152" y1="357.013" x2="683.804" y2="440.661" gradientUnits="userSpaceOnUse">
<stop stop-color="#70998A"/>
<stop offset="1" stop-color="#327C61"/>
</linearGradient>
</defs>
</svg>
