<svg width="582" height="1080" viewBox="0 0 582 1080" fill="none" xmlns="http://www.w3.org/2000/svg">
<g filter="url(#filter0_d_525_236)">
<path d="M-78.8035 467.549C-84.2767 469.461 -89.643 469.149 -94.9024 466.614C-100.162 464.078 -103.748 460.073 -105.66 454.6L-116.09 424.746L-145.944 435.177C-151.418 437.089 -156.784 436.777 -162.043 434.242C-167.303 431.706 -170.888 427.701 -172.801 422.228L-179.754 402.325L-115.569 379.9L-89.7854 399.365C-88.4925 400.402 -86.9549 401.074 -85.1725 401.382C-83.39 401.69 -81.6695 401.554 -80.011 400.974C-77.8549 400.221 -76.0964 398.862 -74.7356 396.898C-73.3748 394.934 -72.7104 392.841 -72.7423 390.619L-73.3894 345.622L-60.4109 355.603C-58.9522 356.582 -57.3316 357.226 -55.5492 357.534C-53.7668 357.841 -52.0463 357.706 -50.3877 357.126L19.2712 332.788L26.225 352.691C28.1373 358.164 27.8255 363.53 25.2897 368.789C22.7539 374.049 18.7494 377.635 13.2762 379.547L-16.5777 389.977L-6.14703 419.831C-4.23475 425.304 -4.54651 430.671 -7.08232 435.93C-9.61813 441.189 -13.6226 444.775 -19.0958 446.688L-78.8035 467.549ZM-94.0474 369.589L-107.275 359.694C-108.568 358.657 -110.105 357.985 -111.888 357.677C-113.67 357.369 -115.391 357.505 -117.049 358.085L-186.708 382.423L-193.662 362.52C-195.574 357.047 -195.262 351.681 -192.727 346.422C-190.191 341.162 -186.186 337.576 -180.713 335.664L-150.859 325.233L-161.29 295.38C-163.202 289.906 -162.89 284.54 -160.355 279.281C-157.819 274.021 -153.814 270.436 -148.341 268.523L-88.6334 247.662C-83.1602 245.75 -77.7939 246.061 -72.5345 248.597C-67.2751 251.133 -63.6893 255.138 -61.777 260.611L-51.3464 290.465L-21.4926 280.034C-16.0194 278.122 -10.6531 278.434 -5.39374 280.969C-0.134374 283.505 3.45145 287.51 5.36373 292.983L12.3175 312.885L-52.117 335.398L-77.9003 315.933C-79.1931 314.896 -80.7308 314.224 -82.5132 313.916C-84.2956 313.608 -86.0161 313.744 -87.6747 314.323C-89.8308 315.077 -91.5478 316.421 -92.8257 318.356C-94.1036 320.292 -94.7265 322.37 -94.6946 324.592L-94.0474 369.589Z" fill="url(#paint0_linear_525_236)"/>
</g>
<g filter="url(#filter1_df_525_236)">
<path d="M161.07 483.027C157.996 481.801 155.8 479.656 154.484 476.594C153.167 473.531 153.122 470.462 154.348 467.388L161.036 450.617L144.265 443.93C141.19 442.704 138.995 440.559 137.679 437.497C136.362 434.434 136.317 431.365 137.543 428.291L142.001 417.11L178.058 431.489L181.877 449.533C182.046 450.464 182.457 451.33 183.109 452.13C183.762 452.931 184.554 453.516 185.486 453.888C186.697 454.371 187.964 454.444 189.286 454.107C190.608 453.771 191.678 453.118 192.497 452.148L209.072 432.517L210.926 441.679C211.188 442.648 211.645 443.532 212.298 444.332C212.95 445.132 213.743 445.718 214.674 446.09L253.806 461.694L249.347 472.874C248.121 475.949 245.977 478.145 242.915 479.461C239.852 480.777 236.783 480.823 233.709 479.597L216.938 472.909L210.25 489.68C209.024 492.754 206.88 494.95 203.817 496.266C200.755 497.583 197.686 497.628 194.612 496.402L161.07 483.027ZM191.194 435.107L189.2 425.889C189.032 424.958 188.621 424.092 187.968 423.292C187.315 422.492 186.523 421.906 185.591 421.534L146.46 405.93L150.918 394.749C152.144 391.675 154.289 389.479 157.351 388.163C160.414 386.846 163.482 386.801 166.557 388.027L183.328 394.715L190.015 377.944C191.241 374.87 193.386 372.674 196.448 371.358C199.511 370.041 202.579 369.996 205.654 371.222L239.195 384.597C242.27 385.823 244.465 387.968 245.782 391.03C247.098 394.093 247.143 397.161 245.917 400.236L239.23 417.007L256.001 423.694C259.075 424.92 261.271 427.065 262.587 430.127C263.903 433.19 263.949 436.259 262.723 439.333L258.264 450.514L222.068 436.08L218.249 418.035C218.08 417.104 217.669 416.238 217.016 415.438C216.364 414.638 215.571 414.052 214.64 413.68C213.429 413.197 212.185 413.133 210.91 413.489C209.634 413.844 208.587 414.506 207.769 415.476L191.194 435.107Z" fill="url(#paint1_linear_525_236)"/>
</g>
<g filter="url(#filter2_df_525_236)">
<path d="M29.1649 625.044C27.6684 625.79 26.1218 625.896 24.5251 625.361C22.9283 624.827 21.7571 623.811 21.0113 622.315L16.9435 614.152L8.7809 618.22C7.28443 618.966 5.73782 619.071 4.14107 618.537C2.54433 618.002 1.37307 616.986 0.627298 615.49L-2.08459 610.048L15.4649 601.302L23.548 605.936C23.9556 606.185 24.4199 606.322 24.941 606.345C25.4621 606.369 25.9494 606.267 26.4029 606.041C26.9924 605.747 27.4462 605.295 27.7642 604.683C28.0823 604.072 28.1964 603.449 28.1066 602.815L26.2881 589.965L30.3636 592.349C30.8165 592.576 31.3035 592.702 31.8246 592.725C32.3457 592.748 32.833 592.647 33.2865 592.421L52.3325 582.929L55.0444 588.371C55.7901 589.868 55.8957 591.414 55.3611 593.011C54.8266 594.608 53.811 595.779 52.3146 596.525L44.152 600.593L48.2198 608.755C48.9656 610.252 49.0712 611.798 48.5366 613.395C48.002 614.992 46.9865 616.163 45.49 616.909L29.1649 625.044ZM21.2478 597.571L17.1044 595.221C16.6968 594.971 16.2325 594.834 15.7114 594.811C15.1903 594.788 14.703 594.889 14.2495 595.115L-4.79649 604.607L-7.50838 599.165C-8.25415 597.668 -8.35974 596.122 -7.82515 594.525C-7.29056 592.928 -6.27503 591.757 -4.77856 591.011L3.384 586.943L-0.683839 578.781C-1.42961 577.284 -1.5352 575.738 -1.00061 574.141C-0.466021 572.544 0.549507 571.373 2.04598 570.627L18.3711 562.492C19.8676 561.746 21.4142 561.64 23.0109 562.175C24.6077 562.709 25.7789 563.725 26.5247 565.221L30.5925 573.384L38.7551 569.316C40.2516 568.57 41.7982 568.465 43.3949 568.999C44.9917 569.534 46.1629 570.549 46.9087 572.046L49.6206 577.488L32.0031 586.267L23.9199 581.634C23.5124 581.385 23.0481 581.248 22.527 581.225C22.0058 581.201 21.5185 581.303 21.0651 581.529C20.4756 581.822 20.0331 582.269 19.7378 582.869C19.4424 583.469 19.3396 584.087 19.4294 584.721L21.2478 597.571Z" fill="url(#paint2_linear_525_236)"/>
</g>
<g filter="url(#filter3_df_525_236)">
<path d="M-27.8186 924.965C-29.3154 925.326 -30.7253 925.102 -32.0484 924.293C-33.3714 923.485 -34.2135 922.332 -34.5746 920.835L-36.5443 912.671L-44.7087 914.64C-46.2055 915.001 -47.6154 914.777 -48.9385 913.969C-50.2616 913.16 -51.1036 912.007 -51.4648 910.51L-52.7779 905.067L-35.2244 900.833L-28.9237 906.656C-28.6093 906.964 -28.2207 907.183 -27.7578 907.311C-27.2948 907.439 -26.8366 907.449 -26.383 907.339C-25.7933 907.197 -25.2928 906.884 -24.8814 906.401C-24.47 905.918 -24.2393 905.382 -24.1891 904.794L-23.1742 892.886L-20.0074 895.866C-19.6478 896.163 -19.2364 896.376 -18.7735 896.504C-18.3106 896.632 -17.8523 896.642 -17.3987 896.532L1.65156 891.936L2.96467 897.379C3.32578 898.876 3.10195 900.286 2.29319 901.609C1.48444 902.932 0.331655 903.774 -1.16516 904.135L-9.32957 906.105L-7.3599 914.269C-6.99879 915.766 -7.22262 917.176 -8.03137 918.499C-8.84013 919.822 -9.99292 920.664 -11.4897 921.025L-27.8186 924.965ZM-29.2652 898.675L-32.5 895.712C-32.8144 895.403 -33.203 895.185 -33.6659 895.057C-34.1288 894.929 -34.5871 894.919 -35.0407 895.029L-54.091 899.624L-55.4041 894.182C-55.7652 892.685 -55.5414 891.275 -54.7326 889.952C-53.9239 888.629 -52.7711 887.787 -51.2743 887.425L-43.1099 885.456L-45.0795 877.291C-45.4406 875.795 -45.2168 874.385 -44.4081 873.062C-43.5993 871.739 -42.4465 870.896 -40.9497 870.535L-24.6209 866.596C-23.1241 866.235 -21.7141 866.459 -20.3911 867.267C-19.068 868.076 -18.2259 869.229 -17.8648 870.726L-15.8951 878.89L-7.73073 876.921C-6.23392 876.559 -4.82398 876.783 -3.50092 877.592C-2.17786 878.401 -1.33578 879.554 -0.97467 881.05L0.338444 886.493L-17.2831 890.745L-23.5838 884.921C-23.8981 884.613 -24.2868 884.395 -24.7497 884.266C-25.2126 884.138 -25.6709 884.128 -26.1245 884.238C-26.7141 884.38 -27.2033 884.69 -27.592 885.168C-27.9807 885.646 -28.2002 886.179 -28.2503 886.767L-29.2652 898.675Z" fill="url(#paint3_linear_525_236)"/>
</g>
<g filter="url(#filter4_df_525_236)">
<path d="M505.908 815.393C503.558 814.848 501.74 813.544 500.455 811.482C499.17 809.42 498.801 807.214 499.346 804.865L502.322 792.047L489.504 789.071C487.154 788.526 485.337 787.222 484.052 785.16C482.767 783.099 482.397 780.893 482.943 778.543L484.927 769.998L512.484 776.395L517.218 788.976C517.442 789.629 517.833 790.207 518.391 790.712C518.95 791.217 519.585 791.552 520.297 791.717C521.223 791.932 522.143 791.846 523.059 791.458C523.974 791.07 524.674 790.482 525.157 789.693L534.942 773.729L537.284 780.126C537.579 780.795 538.006 781.382 538.564 781.887C539.122 782.391 539.757 782.726 540.469 782.892L570.377 789.835L568.393 798.38C567.848 800.73 566.544 802.547 564.482 803.832C562.42 805.117 560.214 805.487 557.865 804.941L545.047 801.966L542.071 814.783C541.526 817.133 540.222 818.95 538.16 820.235C536.098 821.52 533.893 821.89 531.543 821.344L505.908 815.393ZM522.345 777.559L519.896 771.137C519.673 770.484 519.282 769.906 518.723 769.401C518.165 768.896 517.53 768.561 516.818 768.396L486.91 761.453L488.894 752.908C489.439 750.558 490.743 748.74 492.805 747.455C494.867 746.17 497.073 745.801 499.423 746.346L512.24 749.322L515.216 736.504C515.761 734.154 517.065 732.337 519.127 731.052C521.189 729.767 523.395 729.397 525.745 729.943L551.38 735.894C553.73 736.44 555.547 737.743 556.832 739.805C558.117 741.867 558.487 744.073 557.941 746.423L554.965 759.24L567.783 762.216C570.133 762.761 571.95 764.065 573.235 766.127C574.52 768.189 574.89 770.395 574.344 772.745L572.361 781.29L544.696 774.867L539.962 762.286C539.738 761.634 539.347 761.055 538.789 760.551C538.231 760.046 537.596 759.711 536.884 759.545C535.958 759.331 535.055 759.421 534.175 759.817C533.295 760.213 532.614 760.806 532.13 761.594L522.345 777.559Z" fill="url(#paint4_linear_525_236)"/>
</g>
<g filter="url(#filter5_d_525_236)">
<path d="M461.836 650.844C457.591 650.491 454.083 648.678 451.312 645.403C448.54 642.129 447.331 638.37 447.684 634.125L449.609 610.973L426.457 609.047C422.212 608.694 418.704 606.881 415.933 603.607C413.161 600.333 411.952 596.573 412.305 592.329L413.589 576.893L463.367 581.033L474.85 601.804C475.408 602.886 476.239 603.797 477.343 604.537C478.447 605.276 479.642 605.699 480.929 605.806C482.601 605.945 484.187 605.559 485.687 604.648C487.188 603.736 488.26 602.53 488.902 601.03L501.92 570.64L507.646 581.218C508.332 582.311 509.227 583.228 510.332 583.967C511.436 584.707 512.631 585.13 513.917 585.237L567.94 589.729L566.657 605.164C566.304 609.409 564.49 612.917 561.216 615.688C557.942 618.46 554.183 619.669 549.938 619.316L526.785 617.391L524.86 640.543C524.507 644.788 522.693 648.296 519.419 651.067C516.145 653.839 512.386 655.048 508.141 654.695L461.836 650.844ZM480.892 580.548L474.974 569.953C474.416 568.871 473.585 567.96 472.481 567.22C471.377 566.481 470.182 566.058 468.895 565.951L414.872 561.458L416.156 546.023C416.509 541.778 418.322 538.27 421.596 535.499C424.871 532.728 428.63 531.518 432.875 531.871L456.027 533.797L457.953 510.644C458.306 506.399 460.119 502.891 463.393 500.12C466.667 497.349 470.427 496.14 474.671 496.493L520.977 500.343C525.222 500.696 528.73 502.51 531.501 505.784C534.272 509.058 535.482 512.817 535.129 517.062L533.203 540.215L556.356 542.14C560.601 542.493 564.109 544.307 566.88 547.581C569.651 550.855 570.86 554.614 570.507 558.859L569.224 574.294L519.253 570.138L507.769 549.368C507.212 548.285 506.381 547.374 505.277 546.635C504.173 545.895 502.977 545.472 501.691 545.365C500.019 545.226 498.465 545.615 497.029 546.532C495.592 547.448 494.553 548.657 493.91 550.158L480.892 580.548Z" fill="url(#paint5_linear_525_236)"/>
</g>
<g filter="url(#filter6_d_525_236)">
<path d="M336.017 252.498C331.458 250.869 328.136 247.851 326.05 243.445C323.964 239.038 323.735 234.556 325.365 229.998L334.251 205.133L309.386 196.247C304.828 194.618 301.506 191.6 299.42 187.193C297.333 182.787 297.105 178.305 298.734 173.746L304.658 157.17L358.117 176.275L364.654 202.446C364.949 203.798 365.595 205.041 366.592 206.176C367.588 207.311 368.777 208.125 370.158 208.619C371.954 209.261 373.809 209.301 375.724 208.739C377.638 208.177 379.168 207.166 380.313 205.705L403.498 176.137L406.693 189.429C407.126 190.831 407.842 192.099 408.838 193.234C409.834 194.369 411.023 195.183 412.405 195.677L470.422 216.411L464.498 232.988C462.868 237.546 459.851 240.869 455.444 242.955C451.038 245.041 446.556 245.269 441.997 243.64L417.133 234.754L408.246 259.618C406.617 264.177 403.599 267.499 399.193 269.585C394.787 271.671 390.304 271.9 385.746 270.27L336.017 252.498ZM377.506 180.868L374.105 167.502C373.809 166.15 373.163 164.906 372.166 163.771C371.17 162.636 369.981 161.822 368.6 161.328L310.582 140.594L316.507 124.017C318.136 119.459 321.154 116.136 325.56 114.05C329.966 111.964 334.449 111.736 339.007 113.365L363.872 122.251L372.758 97.3867C374.387 92.8283 377.405 89.506 381.811 87.4199C386.217 85.3339 390.7 85.1054 395.258 86.7346L444.987 104.507C449.546 106.136 452.868 109.154 454.954 113.56C457.04 117.967 457.269 122.449 455.64 127.008L446.753 151.872L471.618 160.758C476.176 162.387 479.499 165.405 481.585 169.812C483.671 174.218 483.899 178.7 482.27 183.259L476.346 199.835L422.68 180.656L416.143 154.485C415.848 153.133 415.202 151.89 414.205 150.755C413.209 149.62 412.02 148.806 410.639 148.312C408.843 147.67 407.022 147.643 405.177 148.229C403.332 148.816 401.836 149.839 400.691 151.3L377.506 180.868Z" fill="url(#paint6_linear_525_236)"/>
</g>
<g filter="url(#filter7_d_525_236)">
<path d="M350.448 1000.76C346.261 999.699 343.055 997.299 340.83 993.562C338.604 989.824 338.022 985.862 339.084 981.675L344.876 958.838L322.038 953.047C317.852 951.985 314.645 949.585 312.42 945.848C310.195 942.11 309.613 938.148 310.675 933.961L314.535 918.736L363.635 931.188L371.654 953.881C372.031 955.057 372.71 956.107 373.691 957.031C374.672 957.955 375.796 958.577 377.065 958.899C378.715 959.317 380.366 959.196 382.019 958.535C383.672 957.874 384.945 956.846 385.839 955.453L403.934 927.229L407.895 938.766C408.398 939.974 409.141 941.04 410.122 941.964C411.103 942.887 412.228 943.51 413.496 943.832L466.783 957.345L462.922 972.57C461.86 976.757 459.461 979.963 455.723 982.188C451.985 984.414 448.023 984.996 443.836 983.934L420.999 978.142L415.208 1000.98C414.146 1005.17 411.747 1008.37 408.009 1010.6C404.271 1012.82 400.309 1013.41 396.122 1012.34L350.448 1000.76ZM381.246 933.628L377.095 922.043C376.718 920.867 376.039 919.817 375.058 918.893C374.077 917.969 372.952 917.346 371.683 917.025L318.396 903.511L322.257 888.287C323.319 884.1 325.719 880.894 329.456 878.668C333.194 876.443 337.156 875.861 341.343 876.923L364.18 882.714L369.971 859.877C371.033 855.69 373.433 852.484 377.171 850.259C380.908 848.033 384.87 847.451 389.057 848.513L434.731 860.096C438.918 861.158 442.124 863.557 444.35 867.295C446.575 871.033 447.157 874.995 446.095 879.182L440.304 902.019L463.141 907.81C467.328 908.872 470.534 911.272 472.759 915.009C474.985 918.747 475.567 922.709 474.505 926.896L470.644 942.121L421.354 929.621L413.335 906.927C412.958 905.752 412.279 904.702 411.298 903.778C410.317 902.854 409.193 902.231 407.924 901.909C406.275 901.491 404.655 901.62 403.066 902.298C401.476 902.975 400.234 904.01 399.341 905.404L381.246 933.628Z" fill="url(#paint7_linear_525_236)"/>
</g>
<g filter="url(#filter8_d_525_236)">
<path d="M228.032 771.412C211.568 775.539 196.092 773.261 181.603 764.58C167.114 755.898 157.806 743.325 153.68 726.862L152.361 721.603C138.717 722.755 126.279 719.349 115.049 711.387C103.82 703.43 96.4857 692.593 93.0471 678.873L81.5849 633.141C80.9353 630.55 81.2686 628.156 82.5845 625.96C83.8959 623.771 85.8473 622.352 88.4388 621.703L106.731 617.118C106.082 614.526 106.412 612.133 107.722 609.939C109.039 607.748 110.994 606.329 113.585 605.679C116.177 605.029 118.57 605.36 120.765 606.67C122.955 607.987 124.375 609.941 125.024 612.533L129.609 630.826C130.258 633.417 129.928 635.81 128.618 638.005C127.301 640.195 125.347 641.615 122.755 642.264C120.164 642.914 117.771 642.584 115.576 641.274C113.386 639.956 111.966 638.002 111.316 635.41L102.17 637.703L111.34 674.288C113.861 684.349 119.602 692.064 128.563 697.433C137.523 702.802 147.034 704.225 157.095 701.704C167.156 699.182 174.871 693.441 180.24 684.481C185.608 675.52 187.032 666.01 184.51 655.949L175.341 619.363L166.194 621.656C166.844 624.247 166.514 626.64 165.204 628.835C163.886 631.025 161.932 632.445 159.34 633.095C156.749 633.744 154.359 633.413 152.17 632.102C149.974 630.786 148.551 628.832 147.902 626.241L143.317 607.948C142.667 605.357 143 602.963 144.316 600.766C145.628 598.578 147.579 597.159 150.171 596.509C152.762 595.86 155.155 596.19 157.35 597.5C159.54 598.817 160.96 600.772 161.609 603.363L179.902 598.778C182.494 598.129 184.887 598.459 187.081 599.769C189.271 601.086 190.691 603.041 191.341 605.632L202.803 651.364C206.242 665.083 204.886 678.099 198.738 690.411C192.59 702.729 183.229 711.598 170.654 717.018L171.972 722.277C174.838 733.71 181.274 742.427 191.28 748.428C201.292 754.421 212.014 755.985 223.447 753.12C234.88 750.254 243.596 743.818 249.597 733.811C255.591 723.8 257.155 713.078 254.289 701.645L250.449 686.325C244.617 685.681 239.403 683.466 234.805 679.68C230.212 675.886 227.171 671.017 225.681 665.072C223.77 657.45 224.814 650.302 228.812 643.63C232.81 636.957 238.62 632.666 246.242 630.755C253.864 628.845 261.011 629.889 267.684 633.887C274.357 637.885 278.648 643.695 280.559 651.317C282.049 657.262 281.663 662.99 279.403 668.502C277.134 674.008 273.581 678.421 268.742 681.74L272.582 697.06C276.708 713.524 274.431 729 265.749 743.489C257.067 757.978 244.495 767.286 228.032 771.412Z" fill="url(#paint8_linear_525_236)"/>
</g>
<g filter="url(#filter9_d_525_236)">
<path d="M-42.3754 169.372C-61.5196 174.17 -79.5159 171.522 -96.3643 161.427C-113.213 151.331 -124.036 136.712 -128.834 117.567L-130.367 111.452C-146.234 112.791 -160.697 108.831 -173.756 99.5722C-186.813 90.3203 -195.341 77.7176 -199.34 61.7641L-212.669 8.58578C-213.424 5.57234 -213.036 2.78869 -211.506 0.234821C-209.981 -2.31018 -207.712 -3.96032 -204.699 -4.71561L-183.427 -10.0471C-184.183 -13.0605 -183.799 -15.8433 -182.276 -18.3953C-180.743 -20.9421 -178.471 -22.5932 -175.457 -23.3484C-172.444 -24.1037 -169.661 -23.7198 -167.109 -22.1967C-164.562 -20.6647 -162.911 -18.3919 -162.156 -15.3785L-156.825 5.89283C-156.069 8.90627 -156.453 11.689 -157.976 14.2411C-159.508 16.7879 -161.781 18.4389 -164.794 19.1942C-167.808 19.9495 -170.591 19.5656 -173.143 18.0424C-175.69 16.5104 -177.341 14.2377 -178.096 11.2243L-188.732 13.89L-178.069 56.4327C-175.136 68.1319 -168.46 77.1031 -158.041 83.3462C-147.622 89.5893 -136.562 91.2447 -124.863 88.3124C-113.164 85.3801 -104.193 78.7043 -97.9495 68.2849C-91.7064 57.8654 -90.051 46.8061 -92.9833 35.1069L-103.646 -7.43578L-114.282 -4.77006C-113.527 -1.75662 -113.91 1.02614 -115.434 3.57823C-116.966 6.12501 -119.238 7.77604 -122.252 8.53133C-125.265 9.28662 -128.044 8.9018 -130.589 7.37689C-133.143 5.84666 -134.798 3.57482 -135.553 0.561389L-140.885 -20.7099C-141.64 -23.7234 -141.252 -26.507 -139.722 -29.0609C-138.197 -31.6059 -135.928 -33.256 -132.915 -34.0113C-129.901 -34.7666 -127.118 -34.3827 -124.566 -32.8596C-122.02 -31.3275 -120.369 -29.0548 -119.613 -26.0414L-98.342 -31.3728C-95.3285 -32.1281 -92.5457 -31.7442 -89.9937 -30.2211C-87.4469 -28.6891 -85.7959 -26.4163 -85.0406 -23.4029L-71.712 29.7754C-67.7134 45.7289 -69.2892 60.8641 -76.4395 75.1808C-83.588 89.5047 -94.4734 99.8178 -109.096 106.12L-107.563 112.236C-104.231 125.53 -96.7468 135.667 -85.1108 142.645C-73.4694 149.614 -61.0014 151.433 -47.7068 148.101C-34.4123 144.768 -24.2759 137.284 -17.2978 125.648C-10.3285 114.007 -8.50995 101.539 -11.8421 88.2444L-16.3072 70.4296C-23.0889 69.6802 -29.1528 67.1044 -34.4989 62.702C-39.8397 58.2907 -43.3765 52.6285 -45.1092 45.7153C-47.3306 36.8523 -46.1168 28.5412 -41.4676 20.782C-36.8185 13.0229 -30.0624 8.0326 -21.1994 5.81116C-12.3363 3.58973 -4.02521 4.80358 3.73394 9.45271C11.4931 14.1018 16.4834 20.8579 18.7048 29.721C20.4375 36.6342 19.9895 43.2951 17.3606 49.7039C14.7229 56.1074 10.5907 61.2388 4.96414 65.0982L9.42923 82.9129C14.2275 102.057 11.5791 120.053 1.48379 136.902C-8.61147 153.75 -23.2312 164.574 -42.3754 169.372Z" fill="url(#paint9_linear_525_236)"/>
</g>
<g filter="url(#filter10_d_525_236)">
<path d="M111.578 1092.42C96.3385 1082.72 86.7692 1069.09 82.8705 1051.55C78.9718 1034 81.8722 1017.6 91.5717 1002.36L94.6702 997.492C83.7921 987.793 77.3185 975.69 75.2495 961.185C73.1768 946.684 76.182 933.084 84.2649 920.384L111.208 878.052C112.735 875.653 114.828 874.158 117.489 873.567C120.14 872.978 122.664 873.447 125.063 874.974L141.996 885.751C143.523 883.352 145.614 881.855 148.268 881.261C150.925 880.675 153.453 881.146 155.852 882.673C158.251 884.2 159.747 886.29 160.342 888.945C160.927 891.602 160.456 894.129 158.93 896.528L148.152 913.461C146.626 915.86 144.535 917.357 141.88 917.951C139.224 918.537 136.696 918.066 134.297 916.539C131.898 915.012 130.402 912.922 129.807 910.267C129.222 907.611 129.692 905.083 131.219 902.684L122.753 897.295L101.198 931.162C95.2706 940.475 93.5124 950.558 95.9234 961.411C98.3345 972.265 104.197 980.655 113.51 986.583C122.823 992.51 132.906 994.268 143.76 991.857C154.613 989.446 163.003 983.584 168.931 974.271L190.485 940.404L182.019 935.016C180.492 937.415 178.401 938.911 175.747 939.506C173.09 940.091 170.562 939.621 168.163 938.094C165.765 936.567 164.271 934.478 163.682 931.827C163.091 929.167 163.559 926.637 165.086 924.239L175.863 907.305C177.39 904.907 179.483 903.412 182.143 902.821C184.794 902.232 187.319 902.701 189.718 904.227C192.117 905.754 193.614 907.845 194.208 910.499C194.793 913.156 194.323 915.684 192.796 918.083L209.729 928.86C212.128 930.387 213.625 932.477 214.219 935.132C214.805 937.789 214.334 940.316 212.807 942.715L185.864 985.048C177.781 997.748 166.733 1006.23 152.719 1010.49C138.701 1014.76 124.996 1014.02 111.603 1008.27L108.505 1013.14C101.769 1023.72 99.7455 1035.07 102.434 1047.2C105.132 1059.32 111.772 1068.75 122.356 1075.49C132.939 1082.22 144.293 1084.25 156.417 1081.56C168.539 1078.86 177.968 1072.22 184.704 1061.64L193.73 1047.45C189.959 1042.48 187.853 1036.83 187.413 1030.5C186.981 1024.18 188.517 1018.26 192.02 1012.76C196.51 1005.7 202.797 1001.28 210.879 999.482C218.961 997.687 226.53 999.034 233.585 1003.52C240.641 1008.02 245.066 1014.3 246.862 1022.38C248.657 1030.47 247.31 1038.03 242.819 1045.09C239.317 1050.59 234.609 1054.49 228.696 1056.78C222.78 1059.06 216.77 1059.54 210.663 1058.23L201.637 1072.41C191.938 1087.65 178.313 1097.22 160.763 1101.12C143.213 1105.02 126.818 1102.12 111.578 1092.42Z" fill="url(#paint10_linear_525_236)"/>
</g>
<g filter="url(#filter11_df_525_236)">
<path d="M164.408 233.388C156.676 231.316 150.819 226.831 146.836 219.932C142.853 213.033 141.897 205.718 143.969 197.986L144.631 195.516C138.742 192.864 134.396 188.61 131.591 182.754C128.785 176.901 128.246 170.753 129.972 164.31L135.727 142.832C136.053 141.615 136.739 140.704 137.785 140.101C138.827 139.499 139.957 139.361 141.174 139.687L149.765 141.989C150.091 140.772 150.776 139.861 151.818 139.257C152.863 138.656 153.994 138.519 155.211 138.845C156.429 139.171 157.339 139.855 157.944 140.898C158.545 141.943 158.682 143.074 158.356 144.291L156.054 152.882C155.728 154.099 155.043 155.01 154.001 155.615C152.956 156.216 151.825 156.353 150.608 156.027C149.39 155.701 148.48 155.016 147.875 153.973C147.274 152.928 147.137 151.797 147.463 150.58L143.167 149.429L138.563 166.612C137.297 171.337 137.896 175.832 140.359 180.099C142.822 184.365 146.417 187.132 151.142 188.398C155.867 189.664 160.363 189.065 164.629 186.602C168.895 184.139 171.662 180.545 172.928 175.819L177.532 158.637L173.236 157.486C172.91 158.703 172.226 159.614 171.183 160.219C170.138 160.82 169.007 160.957 167.79 160.631C166.573 160.305 165.663 159.621 165.062 158.579C164.458 157.533 164.319 156.401 164.645 155.184L166.947 146.593C167.273 145.376 167.959 144.466 169.005 143.862C170.047 143.26 171.177 143.123 172.394 143.449C173.611 143.775 174.522 144.459 175.126 145.502C175.727 146.547 175.864 147.678 175.538 148.895L184.129 151.197C185.346 151.523 186.257 152.208 186.862 153.251C187.463 154.296 187.6 155.427 187.274 156.644L181.519 178.121C179.792 184.565 176.251 189.619 170.895 193.285C165.538 196.954 159.647 198.465 153.222 197.818L152.56 200.288C151.121 205.657 151.777 210.725 154.526 215.492C157.279 220.257 161.341 223.358 166.71 224.797C172.08 226.236 177.148 225.58 181.915 222.831C186.679 220.077 189.781 216.016 191.22 210.646L193.148 203.451C190.891 201.849 189.249 199.741 188.222 197.127C187.198 194.511 187.06 191.807 187.808 189.015C188.767 185.435 190.835 182.728 194.012 180.894C197.19 179.059 200.568 178.622 204.148 179.581C207.727 180.54 210.434 182.608 212.269 185.785C214.103 188.962 214.54 192.341 213.581 195.92C212.833 198.713 211.362 200.985 209.167 202.739C206.97 204.489 204.494 205.494 201.739 205.753L199.811 212.948C197.739 220.68 193.254 226.538 186.355 230.521C179.456 234.504 172.14 235.46 164.408 233.388Z" fill="url(#paint11_linear_525_236)"/>
</g>
<g filter="url(#filter12_df_525_236)">
<path d="M464.836 415.581C459.237 416.718 454.067 415.718 449.327 412.579C444.586 409.439 441.647 405.071 440.509 399.472L440.146 397.683C435.54 397.864 431.409 396.53 427.754 393.682C424.099 390.836 421.797 387.081 420.849 382.415L417.688 366.863C417.509 365.982 417.657 365.182 418.133 364.463C418.607 363.747 419.285 363.3 420.166 363.121L426.387 361.856C426.208 360.975 426.355 360.175 426.829 359.457C427.305 358.741 427.984 358.293 428.865 358.114C429.747 357.935 430.546 358.082 431.264 358.556C431.981 359.032 432.429 359.711 432.608 360.592L433.872 366.813C434.051 367.694 433.904 368.494 433.43 369.212C432.954 369.928 432.275 370.376 431.394 370.555C430.513 370.734 429.713 370.587 428.995 370.113C428.278 369.637 427.83 368.958 427.651 368.077L424.541 368.709L427.069 381.151C427.765 384.572 429.578 387.254 432.51 389.195C435.441 391.136 438.618 391.759 442.039 391.064C445.461 390.368 448.142 388.555 450.083 385.623C452.025 382.692 452.648 379.515 451.952 376.094L449.424 363.652L446.314 364.284C446.493 365.166 446.345 365.965 445.872 366.684C445.395 367.4 444.717 367.848 443.835 368.027C442.954 368.206 442.155 368.058 441.439 367.584C440.721 367.108 440.272 366.43 440.093 365.549L438.829 359.328C438.649 358.447 438.798 357.647 439.274 356.928C439.748 356.212 440.426 355.764 441.307 355.585C442.188 355.406 442.988 355.554 443.706 356.027C444.422 356.504 444.87 357.182 445.049 358.064L451.27 356.799C452.151 356.62 452.951 356.768 453.669 357.241C454.386 357.718 454.834 358.396 455.013 359.278L458.173 374.83C459.121 379.495 458.468 383.851 456.214 387.898C453.96 391.947 450.677 394.787 446.367 396.419L446.73 398.208C447.52 402.096 449.552 405.124 452.826 407.294C456.102 409.461 459.683 410.15 463.571 409.36C467.459 408.57 470.488 406.538 472.658 403.264C474.825 399.988 475.514 396.407 474.723 392.519L473.665 387.309C471.713 387.004 469.993 386.18 468.505 384.837C467.018 383.491 466.069 381.808 465.658 379.786C465.131 377.194 465.591 374.807 467.037 372.623C468.482 370.44 470.501 369.085 473.093 368.559C475.685 368.032 478.073 368.491 480.256 369.937C482.439 371.383 483.794 373.401 484.32 375.993C484.731 378.015 484.515 379.936 483.671 381.754C482.825 383.572 481.563 385.002 479.885 386.044L480.944 391.254C482.082 396.853 481.081 402.023 477.942 406.763C474.803 411.504 470.434 414.443 464.836 415.581Z" fill="url(#paint12_linear_525_236)"/>
</g>
<defs>
<filter id="filter0_d_525_236" x="-198.896" y="246.429" width="230.354" height="230.353" filterUnits="userSpaceOnUse" color-interpolation-filters="sRGB">
<feFlood flood-opacity="0" result="BackgroundImageFix"/>
<feColorMatrix in="SourceAlpha" type="matrix" values="0 0 0 0 0 0 0 0 0 0 0 0 0 0 0 0 0 0 127 0" result="hardAlpha"/>
<feOffset dy="4"/>
<feGaussianBlur stdDeviation="2"/>
<feComposite in2="hardAlpha" operator="out"/>
<feColorMatrix type="matrix" values="0 0 0 0 0 0 0 0 0 0 0 0 0 0 0 0 0 0 0.25 0"/>
<feBlend mode="normal" in2="BackgroundImageFix" result="effect1_dropShadow_525_236"/>
<feBlend mode="normal" in="SourceGraphic" in2="effect1_dropShadow_525_236" result="shape"/>
</filter>
<filter id="filter1_df_525_236" x="129.456" y="363.135" width="141.353" height="142.153" filterUnits="userSpaceOnUse" color-interpolation-filters="sRGB">
<feFlood flood-opacity="0" result="BackgroundImageFix"/>
<feColorMatrix in="SourceAlpha" type="matrix" values="0 0 0 0 0 0 0 0 0 0 0 0 0 0 0 0 0 0 127 0" result="hardAlpha"/>
<feOffset dy="4"/>
<feGaussianBlur stdDeviation="2"/>
<feComposite in2="hardAlpha" operator="out"/>
<feColorMatrix type="matrix" values="0 0 0 0 0 0 0 0 0 0 0 0 0 0 0 0 0 0 0.25 0"/>
<feBlend mode="normal" in2="BackgroundImageFix" result="effect1_dropShadow_525_236"/>
<feBlend mode="normal" in="SourceGraphic" in2="effect1_dropShadow_525_236" result="shape"/>
<feGaussianBlur stdDeviation="3.6" result="effect2_foregroundBlur_525_236"/>
</filter>
<filter id="filter2_df_525_236" x="-15.3602" y="554.64" width="78.2564" height="79.0559" filterUnits="userSpaceOnUse" color-interpolation-filters="sRGB">
<feFlood flood-opacity="0" result="BackgroundImageFix"/>
<feColorMatrix in="SourceAlpha" type="matrix" values="0 0 0 0 0 0 0 0 0 0 0 0 0 0 0 0 0 0 127 0" result="hardAlpha"/>
<feOffset dy="4"/>
<feGaussianBlur stdDeviation="2"/>
<feComposite in2="hardAlpha" operator="out"/>
<feColorMatrix type="matrix" values="0 0 0 0 0 0 0 0 0 0 0 0 0 0 0 0 0 0 0.25 0"/>
<feBlend mode="normal" in2="BackgroundImageFix" result="effect1_dropShadow_525_236"/>
<feBlend mode="normal" in="SourceGraphic" in2="effect1_dropShadow_525_236" result="shape"/>
<feGaussianBlur stdDeviation="3.6" result="effect2_foregroundBlur_525_236"/>
</filter>
<filter id="filter3_df_525_236" x="-62.7713" y="859.229" width="73.1031" height="73.9032" filterUnits="userSpaceOnUse" color-interpolation-filters="sRGB">
<feFlood flood-opacity="0" result="BackgroundImageFix"/>
<feColorMatrix in="SourceAlpha" type="matrix" values="0 0 0 0 0 0 0 0 0 0 0 0 0 0 0 0 0 0 127 0" result="hardAlpha"/>
<feOffset dy="4"/>
<feGaussianBlur stdDeviation="2"/>
<feComposite in2="hardAlpha" operator="out"/>
<feColorMatrix type="matrix" values="0 0 0 0 0 0 0 0 0 0 0 0 0 0 0 0 0 0 0.25 0"/>
<feBlend mode="normal" in2="BackgroundImageFix" result="effect1_dropShadow_525_236"/>
<feBlend mode="normal" in="SourceGraphic" in2="effect1_dropShadow_525_236" result="shape"/>
<feGaussianBlur stdDeviation="3.6" result="effect2_foregroundBlur_525_236"/>
</filter>
<filter id="filter4_df_525_236" x="475.499" y="722.499" width="106.289" height="107.089" filterUnits="userSpaceOnUse" color-interpolation-filters="sRGB">
<feFlood flood-opacity="0" result="BackgroundImageFix"/>
<feColorMatrix in="SourceAlpha" type="matrix" values="0 0 0 0 0 0 0 0 0 0 0 0 0 0 0 0 0 0 127 0" result="hardAlpha"/>
<feOffset dy="4"/>
<feGaussianBlur stdDeviation="2"/>
<feComposite in2="hardAlpha" operator="out"/>
<feColorMatrix type="matrix" values="0 0 0 0 0 0 0 0 0 0 0 0 0 0 0 0 0 0 0.25 0"/>
<feBlend mode="normal" in2="BackgroundImageFix" result="effect1_dropShadow_525_236"/>
<feBlend mode="normal" in="SourceGraphic" in2="effect1_dropShadow_525_236" result="shape"/>
<feGaussianBlur stdDeviation="3.6" result="effect2_foregroundBlur_525_236"/>
</filter>
<filter id="filter5_d_525_236" x="408.245" y="496.433" width="166.322" height="167.322" filterUnits="userSpaceOnUse" color-interpolation-filters="sRGB">
<feFlood flood-opacity="0" result="BackgroundImageFix"/>
<feColorMatrix in="SourceAlpha" type="matrix" values="0 0 0 0 0 0 0 0 0 0 0 0 0 0 0 0 0 0 127 0" result="hardAlpha"/>
<feOffset dy="5"/>
<feGaussianBlur stdDeviation="2"/>
<feComposite in2="hardAlpha" operator="out"/>
<feColorMatrix type="matrix" values="0 0 0 0 0 0 0 0 0 0 0 0 0 0 0 0 0 0 0.25 0"/>
<feBlend mode="normal" in2="BackgroundImageFix" result="effect1_dropShadow_525_236"/>
<feBlend mode="normal" in="SourceGraphic" in2="effect1_dropShadow_525_236" result="shape"/>
</filter>
<filter id="filter6_d_525_236" x="293.662" y="85.663" width="193.68" height="194.679" filterUnits="userSpaceOnUse" color-interpolation-filters="sRGB">
<feFlood flood-opacity="0" result="BackgroundImageFix"/>
<feColorMatrix in="SourceAlpha" type="matrix" values="0 0 0 0 0 0 0 0 0 0 0 0 0 0 0 0 0 0 127 0" result="hardAlpha"/>
<feOffset dy="5"/>
<feGaussianBlur stdDeviation="2"/>
<feComposite in2="hardAlpha" operator="out"/>
<feColorMatrix type="matrix" values="0 0 0 0 0 0 0 0 0 0 0 0 0 0 0 0 0 0 0.25 0"/>
<feBlend mode="normal" in2="BackgroundImageFix" result="effect1_dropShadow_525_236"/>
<feBlend mode="normal" in="SourceGraphic" in2="effect1_dropShadow_525_236" result="shape"/>
</filter>
<filter id="filter7_d_525_236" x="306.16" y="847.999" width="172.859" height="173.859" filterUnits="userSpaceOnUse" color-interpolation-filters="sRGB">
<feFlood flood-opacity="0" result="BackgroundImageFix"/>
<feColorMatrix in="SourceAlpha" type="matrix" values="0 0 0 0 0 0 0 0 0 0 0 0 0 0 0 0 0 0 127 0" result="hardAlpha"/>
<feOffset dy="5"/>
<feGaussianBlur stdDeviation="2"/>
<feComposite in2="hardAlpha" operator="out"/>
<feColorMatrix type="matrix" values="0 0 0 0 0 0 0 0 0 0 0 0 0 0 0 0 0 0 0.25 0"/>
<feBlend mode="normal" in2="BackgroundImageFix" result="effect1_dropShadow_525_236"/>
<feBlend mode="normal" in="SourceGraphic" in2="effect1_dropShadow_525_236" result="shape"/>
</filter>
<filter id="filter8_d_525_236" x="77.2627" y="596.186" width="208.184" height="188.22" filterUnits="userSpaceOnUse" color-interpolation-filters="sRGB">
<feFlood flood-opacity="0" result="BackgroundImageFix"/>
<feColorMatrix in="SourceAlpha" type="matrix" values="0 0 0 0 0 0 0 0 0 0 0 0 0 0 0 0 0 0 127 0" result="hardAlpha"/>
<feOffset dy="7"/>
<feGaussianBlur stdDeviation="2"/>
<feComposite in2="hardAlpha" operator="out"/>
<feColorMatrix type="matrix" values="0 0 0 0 0 0 0 0 0 0 0 0 0 0 0 0 0 0 0.25 0"/>
<feBlend mode="normal" in2="BackgroundImageFix" result="effect1_dropShadow_525_236"/>
<feBlend mode="normal" in="SourceGraphic" in2="effect1_dropShadow_525_236" result="shape"/>
</filter>
<filter id="filter9_d_525_236" x="-217.043" y="-34.3869" width="240.78" height="217.078" filterUnits="userSpaceOnUse" color-interpolation-filters="sRGB">
<feFlood flood-opacity="0" result="BackgroundImageFix"/>
<feColorMatrix in="SourceAlpha" type="matrix" values="0 0 0 0 0 0 0 0 0 0 0 0 0 0 0 0 0 0 127 0" result="hardAlpha"/>
<feOffset dy="7"/>
<feGaussianBlur stdDeviation="2"/>
<feComposite in2="hardAlpha" operator="out"/>
<feColorMatrix type="matrix" values="0 0 0 0 0 0 0 0 0 0 0 0 0 0 0 0 0 0 0.25 0"/>
<feBlend mode="normal" in2="BackgroundImageFix" result="effect1_dropShadow_525_236"/>
<feBlend mode="normal" in="SourceGraphic" in2="effect1_dropShadow_525_236" result="shape"/>
</filter>
<filter id="filter10_d_525_236" x="70.6152" y="873.321" width="181.016" height="240.476" filterUnits="userSpaceOnUse" color-interpolation-filters="sRGB">
<feFlood flood-opacity="0" result="BackgroundImageFix"/>
<feColorMatrix in="SourceAlpha" type="matrix" values="0 0 0 0 0 0 0 0 0 0 0 0 0 0 0 0 0 0 127 0" result="hardAlpha"/>
<feOffset dy="7"/>
<feGaussianBlur stdDeviation="2"/>
<feComposite in2="hardAlpha" operator="out"/>
<feColorMatrix type="matrix" values="0 0 0 0 0 0 0 0 0 0 0 0 0 0 0 0 0 0 0.25 0"/>
<feBlend mode="normal" in2="BackgroundImageFix" result="effect1_dropShadow_525_236"/>
<feBlend mode="normal" in="SourceGraphic" in2="effect1_dropShadow_525_236" result="shape"/>
</filter>
<filter id="filter11_df_525_236" x="124.985" y="134.673" width="93.0898" height="107.779" filterUnits="userSpaceOnUse" color-interpolation-filters="sRGB">
<feFlood flood-opacity="0" result="BackgroundImageFix"/>
<feColorMatrix in="SourceAlpha" type="matrix" values="0 0 0 0 0 0 0 0 0 0 0 0 0 0 0 0 0 0 127 0" result="hardAlpha"/>
<feOffset dy="4"/>
<feGaussianBlur stdDeviation="2"/>
<feComposite in2="hardAlpha" operator="out"/>
<feColorMatrix type="matrix" values="0 0 0 0 0 0 0 0 0 0 0 0 0 0 0 0 0 0 0.25 0"/>
<feBlend mode="normal" in2="BackgroundImageFix" result="effect1_dropShadow_525_236"/>
<feBlend mode="normal" in="SourceGraphic" in2="effect1_dropShadow_525_236" result="shape"/>
<feGaussianBlur stdDeviation="2" result="effect2_foregroundBlur_525_236"/>
</filter>
<filter id="filter12_df_525_236" x="413.614" y="351.512" width="74.9082" height="72.5229" filterUnits="userSpaceOnUse" color-interpolation-filters="sRGB">
<feFlood flood-opacity="0" result="BackgroundImageFix"/>
<feColorMatrix in="SourceAlpha" type="matrix" values="0 0 0 0 0 0 0 0 0 0 0 0 0 0 0 0 0 0 127 0" result="hardAlpha"/>
<feOffset dy="4"/>
<feGaussianBlur stdDeviation="2"/>
<feComposite in2="hardAlpha" operator="out"/>
<feColorMatrix type="matrix" values="0 0 0 0 0 0 0 0 0 0 0 0 0 0 0 0 0 0 0.25 0"/>
<feBlend mode="normal" in2="BackgroundImageFix" result="effect1_dropShadow_525_236"/>
<feBlend mode="normal" in="SourceGraphic" in2="effect1_dropShadow_525_236" result="shape"/>
<feGaussianBlur stdDeviation="2" result="effect2_foregroundBlur_525_236"/>
</filter>
<linearGradient id="paint0_linear_525_236" x1="-90.6923" y1="249.916" x2="-90.4724" y2="530.265" gradientUnits="userSpaceOnUse">
<stop stop-color="#1C4033"/>
<stop offset="1" stop-color="#5DB091"/>
</linearGradient>
<linearGradient id="paint1_linear_525_236" x1="237.464" y1="384.797" x2="132.551" y2="505.68" gradientUnits="userSpaceOnUse">
<stop stop-color="#1C4033"/>
<stop offset="1" stop-color="#5DB091"/>
</linearGradient>
<linearGradient id="paint2_linear_525_236" x1="17.8638" y1="563.211" x2="28.1029" y2="643.411" gradientUnits="userSpaceOnUse">
<stop stop-color="#1C4033"/>
<stop offset="1" stop-color="#5DB091"/>
</linearGradient>
<linearGradient id="paint3_linear_525_236" x1="-25.2244" y1="867.137" x2="-32.5553" y2="941.231" gradientUnits="userSpaceOnUse">
<stop stop-color="#1C4033"/>
<stop offset="1" stop-color="#5DB091"/>
</linearGradient>
<linearGradient id="paint4_linear_525_236" x1="550.154" y1="736.228" x2="487.849" y2="834.848" gradientUnits="userSpaceOnUse">
<stop stop-color="#1C4033"/>
<stop offset="1" stop-color="#5DB091"/>
</linearGradient>
<linearGradient id="paint5_linear_525_236" x1="518.922" y1="501.24" x2="435.255" y2="689.443" gradientUnits="userSpaceOnUse">
<stop stop-color="#1C4033"/>
<stop offset="1" stop-color="#5DB091"/>
</linearGradient>
<linearGradient id="paint6_linear_525_236" x1="442.468" y1="104.891" x2="295.535" y2="287.116" gradientUnits="userSpaceOnUse">
<stop stop-color="#1C4033"/>
<stop offset="1" stop-color="#5DB091"/>
</linearGradient>
<linearGradient id="paint7_linear_525_236" x1="432.526" y1="860.65" x2="317.416" y2="1034.93" gradientUnits="userSpaceOnUse">
<stop stop-color="#1C4033"/>
<stop offset="1" stop-color="#5DB091"/>
</linearGradient>
<linearGradient id="paint8_linear_525_236" x1="193.886" y1="586.888" x2="171.405" y2="836.655" gradientUnits="userSpaceOnUse">
<stop stop-color="#70998A"/>
<stop offset="1" stop-color="#327C61"/>
</linearGradient>
<linearGradient id="paint9_linear_525_236" x1="-82.0811" y1="-45.1992" x2="-108.223" y2="245.239" gradientUnits="userSpaceOnUse">
<stop stop-color="#70998A"/>
<stop offset="1" stop-color="#327C61"/>
</linearGradient>
<linearGradient id="paint10_linear_525_236" x1="229.152" y1="930.96" x2="19.717" y2="1096.43" gradientUnits="userSpaceOnUse">
<stop stop-color="#70998A"/>
<stop offset="1" stop-color="#327C61"/>
</linearGradient>
<linearGradient id="paint11_linear_525_236" x1="192.618" y1="149.5" x2="126.115" y2="247.305" gradientUnits="userSpaceOnUse">
<stop stop-color="#70998A"/>
<stop offset="1" stop-color="#327C61"/>
</linearGradient>
<linearGradient id="paint12_linear_525_236" x1="456.153" y1="353.013" x2="444.804" y2="436.661" gradientUnits="userSpaceOnUse">
<stop stop-color="#70998A"/>
<stop offset="1" stop-color="#327C61"/>
</linearGradient>
</defs>
</svg>
