<svg width="350" height="323" viewBox="0 0 350 323" fill="none" xmlns="http://www.w3.org/2000/svg">
<circle cx="177" cy="53" r="53" fill="#F1F1F1"/>
<path d="M185 29V89H141V81H149V17H185V21H205V81H213V89H197V29H185ZM169 49V57H177V49H169Z" fill="#5E8275"/>
<path fill-rule="evenodd" clip-rule="evenodd" d="M114.536 66H20C8.95431 66 0 74.9543 0 86V303C0 314.046 8.9543 323 20 323H330C341.046 323 350 314.046 350 303V86C350 74.9543 341.046 66 330 66H239.464C233.079 94.6127 207.537 116 177 116C146.463 116 120.921 94.6127 114.536 66Z" fill="#F1F1F1"/>
</svg>
