<svg width="350" height="324" viewBox="0 0 350 324" fill="none" xmlns="http://www.w3.org/2000/svg">
<circle cx="177" cy="53" r="53" fill="#F1F1F1"/>
<path fill-rule="evenodd" clip-rule="evenodd" d="M114.536 67H20C8.95431 67 0 75.9543 0 87V304C0 315.046 8.9543 324 20 324H330C341.046 324 350 315.046 350 304V87C350 75.9543 341.046 67 330 67H239.464C233.079 95.6127 207.537 117 177 117C146.463 117 120.921 95.6127 114.536 67Z" fill="#F1F1F1"/>
<path d="M153.22 83.375C151.375 83.375 149.796 82.7187 148.483 81.4061C147.169 80.0913 146.511 78.5115 146.511 76.6667V50.001C145.225 48.8271 144.234 47.3177 143.536 45.4729C142.836 43.6281 142.822 41.6156 143.492 39.4354L147.014 28.0312C147.462 26.5778 148.259 25.3759 149.406 24.4255C150.551 23.4752 151.878 23 153.387 23H200.01C201.52 23 202.833 23.4606 203.951 24.3819C205.069 25.3054 205.88 26.5219 206.383 28.0312L209.905 39.4354C210.576 41.6156 210.562 43.6002 209.865 45.3891C209.165 47.178 208.172 48.7153 206.886 50.001V76.6667C206.886 78.5115 206.23 80.0913 204.917 81.4061C203.602 82.7187 202.023 83.375 200.178 83.375H153.22ZM184.078 46.4792C185.587 46.4792 186.733 45.9615 187.516 44.9262C188.299 43.8931 188.606 42.7337 188.438 41.4479L186.593 29.7083H180.053V42.1187C180.053 43.2927 180.444 44.3135 181.227 45.1811C182.009 46.0465 182.96 46.4792 184.078 46.4792ZM168.984 46.4792C170.27 46.4792 171.319 46.0465 172.13 45.1811C172.94 44.3135 173.345 43.2927 173.345 42.1187V29.7083H166.804L164.959 41.4479C164.736 42.7896 165.03 43.9635 165.841 44.9698C166.651 45.976 167.698 46.4792 168.984 46.4792ZM154.058 46.4792C155.064 46.4792 155.944 46.1158 156.698 45.3891C157.454 44.6623 157.915 43.7399 158.083 42.6219L159.928 29.7083H153.387L150.033 40.9448C149.698 42.0628 149.879 43.2648 150.576 44.5505C151.276 45.8363 152.437 46.4792 154.058 46.4792ZM199.339 46.4792C200.961 46.4792 202.134 45.8363 202.861 44.5505C203.588 43.2648 203.756 42.0628 203.364 40.9448L199.842 29.7083H193.47L195.314 42.6219C195.482 43.7399 195.944 44.6623 196.7 45.3891C197.453 46.1158 198.333 46.4792 199.339 46.4792Z" fill="#5E8275"/>
</svg>
